<?xml version="1.0" encoding="utf-8"?>
<!-- Generator: Adobe Illustrator 19.2.0, SVG Export Plug-In . SVG Version: 6.00 Build 0)  -->
<svg version="1.1" id="Capa_1" xmlns="http://www.w3.org/2000/svg" xmlns:xlink="http://www.w3.org/1999/xlink" x="0px" y="0px"
	 viewBox="0 0 112.2 112.2" style="enable-background:new 0 0 112.2 112.2;" xml:space="preserve">
<style type="text/css">
	.st0{fill:#CA006F;}
</style>
<title>twitter_white</title>
<path class="st0" d="M56.1,0C25.1,0,0,25.1,0,56.1s25.1,56.1,56.1,56.1s56.1-25.1,56.1-56.1S87.1,0,56.1,0C56.1,0,56.1,0,56.1,0z
	 M83.8,47.3c0,0.6,0,1.2,0,1.7c0,17.7-13.5,38.2-38.2,38.2c-7.3,0-14.4-2.1-20.5-6C32.2,82,39.4,80,45,75.6
	c-5.7-0.1-10.8-3.8-12.5-9.3c2,0.4,4.1,0.3,6-0.3c-6.2-1.3-10.7-6.8-10.8-13.1c0-0.1,0-0.1,0-0.2c1.9,1,3.9,1.6,6.1,1.7
	c-5.9-3.9-7.7-11.8-4.1-17.9c6.8,8.4,16.9,13.5,27.6,14c-1.7-7.2,2.8-14.4,10-16.1c4.7-1.1,9.5,0.4,12.8,3.9c3-0.6,5.9-1.7,8.5-3.3
	c-1,3.1-3.1,5.7-5.9,7.4c2.7-0.3,5.3-1,7.7-2.1C88.7,43,86.4,45.4,83.8,47.3z"/>
</svg>
