<svg id="Capa_1" data-name="Capa 1" xmlns="http://www.w3.org/2000/svg" viewBox="0 0 490 397.7"><defs><style>.cls-1{fill:#fff;}</style></defs><title>flaticon1507215772-svg</title><path class="cls-1" d="M0,167.85V384a59.83,59.83,0,0,0,59.8,59.8H430.2A59.83,59.83,0,0,0,490,384V167.85a56.93,56.93,0,0,0-56.9-56.9H353.5l-1.9-8.3a72.69,72.69,0,0,0-71.2-56.5H209.5a72.86,72.86,0,0,0-71.2,56.5l-1.9,8.3H56.9A57,57,0,0,0,0,167.85Zm146.2-32.4a12.19,12.19,0,0,0,11.9-9.5l4.1-17.8a48.37,48.37,0,0,1,47.3-37.5h70.9a48.37,48.37,0,0,1,47.3,37.5l4.1,17.8a12.29,12.29,0,0,0,11.9,9.5H433a32.39,32.39,0,0,1,32.4,32.4V384a35.29,35.29,0,0,1-35.3,35.3H59.8A35.29,35.29,0,0,1,24.5,384V167.85a32.39,32.39,0,0,1,32.4-32.4h89.3Z" transform="translate(0 -46.15)"/><circle class="cls-1" cx="82.9" cy="141.6" r="16.4"/><path class="cls-1" d="M245,381a102.9,102.9,0,1,0-102.9-102.9A103.07,103.07,0,0,0,245,381Zm0-181.3A78.4,78.4,0,1,1,166.6,278,78.53,78.53,0,0,1,245,199.65Z" transform="translate(0 -46.15)"/></svg>