<svg xmlns="http://www.w3.org/2000/svg" viewBox="80 18.86 1715.299 1740.74"><defs><style>.a{fill:#9e0059;}.b{fill:#8d0051;}.c{fill:#9c0059;}.d{fill:#910052;}</style></defs><g transform="translate(247 -3966)"><g transform="translate(-167 4011)"><circle class="a" cx="857.3" cy="857.3" r="857.3" transform="translate(0 0)"/><path class="b" d="M1010.7,15.3c-40.7-3.6-68.4-5.2-72.4-5.4-2.5-.1-5.4-.4-8.6-.7-3.5,7.5-11.5,7.8-14.5,1.8-3.2-6.4-10.8,1.5-9.8,6.1s-16.5.2-27,0c-10.6-.2-13.8,0-30.5,0s-10.3-6.8-15.2-12.7,29-4.1,29-4.1h16.7s.1,2.6-11.2,1.9c-7.5-.5-9.5.6-15.4-1.9-6.9.5-14.1,2.3-21.1,2.3-17.7,0-12.9.7-21-.4A863.012,863.012,0,0,0,692.9,17c-.6.3-1.4.8-2.2,1.2-9.2,4.1-13.4,5.1-23.4,5.8s-20.6,5.4-25.6,5.9c-5,.6-4.1,4.3-9.8,5.5-5.7,1.3-3.7.4-12.2,1.3s-7.2,2.8-11.2,6.5c-4.1,3.7-3.1,2.4-10.9,5.3-7.7,2.9-2.9.4-6.4,5.7s5.2,0,11.8,0,7,0,9.4-2.4,3.5-3.1,11.2-5c7.7-1.8,12.7-2.2,12.7,2.8s-3.7,10.1-9.8,15.5c-6.1,5.3,8.1-1.1,16.4-3.7s12.5-2,12.5-2l7.9-5.2s2.8-1.5,9.2-10.1c6.4-8.7,9-2.2,9-2.2l14.7-3.5,2.2-4.6a4.549,4.549,0,0,1,2.6-4.6,92.617,92.617,0,0,0,8.8-5.2l6.4,4.4a28.907,28.907,0,0,0,10.1,4.1c6.6,1.5,6.1.4,11.4.2s5.2-.4,13.8-.9a204.957,204.957,0,0,1,22.3,0c5.5.2-.9-.4-4.4-.4s-24.5-2-24.5-2h-14c-7,0-4.2,2.9-11.4,1.2s-8.2,2.5-12.4,3.8-.7,3.3,1.7,3.5c2.5.2,7.6.2,13.3.4,5.6.2,8.4.7,9.1,2.2a47.155,47.155,0,0,1,1.7,6A42.062,42.062,0,0,1,721.8,48c-6.1,0-17.9,2.7-23.6,4.9S690,64.7,690,64.7s-14,3.4-26,2.5c-12-1-3.2,1.2-13,1.2s-21.9,8.1-24.6,8.1-.5-3.2-.5-5.9-5.9,2.5-18.7,2.7-9.3,1-14.7-1.5,3.4-1.2,10.6-3.7c7.1-2.5,11.8-.2,16.5-2.5,4.7-2.2,1-1.5-2.9-5.8s-8-.4-10.4,0-10.1,4.6-16.6,6.1c-6.4,1.5-4.4.4-11.4,1.1a114.491,114.491,0,0,0-16.2,2.6c-8.3,1.7-4.4,4.2,2.4,4.1,6.8-.2,6.4-2.6,15.1-4.2,8.7-1.7-1,5-5.9,9.7a64.513,64.513,0,0,1-9.6,7.6s-12.3.2-17.2.7-5.9,2.2-10.1,2.2a53.879,53.879,0,0,0-9.1,1l-3.4,7.4s-8.6,4.9-14.2,4.9-.2-5.4-.2-5.4-3.9-2.5-6.4-3.7,7.1-5.2,7.1-5.2a81.473,81.473,0,0,0,5.2-9.3c2.7-5.6,13.5-8.1,13.5-8.1s2.2-3.1,5.7-7.1a859.86,859.86,0,0,0-107.3,52.6c3.7-1.4,3.7-2.7,11.7-6,10.1-4.2,5.4-1,14.4,0s-4.1,1-9,3.9,2.5,5.9,2.5,5.9a114.142,114.142,0,0,1,13.5-5.2c7.4-2.2,16.2-.7,29.5-2.7s.7,2.7-3.9,4.9c-4.7,2.2-12.3,10.1-19.7,8.8-7.4-1.2-7.5-1.5-9,1.8s-9.9,5.2-24.3,6.6c-14.4,1.5-11.1,7.4-14,12.2s8.1,3.3,9.2,7.7-4.4,9.5-14,15a28.887,28.887,0,0,0-12.5,15.4H377c-19.2,0-7-1-18.8-.3s-15.8,7.2-16.9,13.5-5.5,9.1-13.3,11-5.5,7.5-3.3,13-11.4,11.9-23.6,23.7-4.4,15.9,5.2,13.7.4,3.7,3.7,6.3,6.3,3.7,17.3-4c11.1-7.7,17.7-9.9,26.5-10.3s7.4-5.9,18.1-13.3,9.6-10.3,9.6-16.2.4-4.4,13.6-7.4c13.3-2.9,8.1-5.9,11.8-10.7s16.9-6.3,22.5-8.8c5.5-2.6,5.9-6.6,12.5-12.5s9.9-4.8,17.3-7.4,10.7-1.8,20.6-4.8c9.9-2.9,9.6-3.3,16.2-6.6s6.3-2.6,11.4-5.2c5.2-2.6,16.9,4.2,16.9,4.2s6.9,6.4,14.5,13,.2,6.1,10.6,8.8c10.3,2.7,1,1.5-.5,7.1s4.9,2,13.8,2-5.2,11.8-5.2,11.8l-4.9,9.6a137.913,137.913,0,0,0,12.8-6.9c6.9-4.2,15-8.8,15-8.8a18.075,18.075,0,0,1,.2-7.1c1-3.7,1.2-5.4,6.9-4.2,1.4.3,7.4,5.9,9.8,2,1.1-6.1-10.6-13.5-10.6-13.5s-3.3-4.2-13.3-9.3c-6.1-3.2-4.9-3.8-5.5-6.7a12.866,12.866,0,0,0,2.6-3.7s1.7-2.6,4.7-6.3c2.9-3.7-3.4-.6-8.2-.6a17.7,17.7,0,0,1-5.8-.8c-5.7-9.7,11.5-8.2,21.3-3.1l5.8,8.5s12.3,6.6,21.9,12.9,0,9.6,0,14c0,2.5-1.7,6-4,9.4,1.8.2,4.3.7,8.3,1.4,12.5,2.2,1.5,1.2,4.9,7.6s3.4,1.7,13.3,2.9c9.8,1.2,5.2,4.2-.2,4.2s-9.1,0-11.8,1-6.1,6.4-6.1,6.4l-1,4.7,11.3,4.9,9.3-.2s4.4-1.2,6.6-7.1.7-1.7,7.4-2.5c6.6-.7,0,0,3.7-4.7s0-4.2,7.1-8.6,1.2-.5,16.9,0,12.3-1,14.2,2.5c2,3.4,2.2,3.4-1.2,7.6s2.9,5.6,13.8,6.2c10.8.5,5.4,5.6,10.8,6.3s5.6,0,15.7,1,1.5-1,8.6-4.9,4.9.2,5.9.2,26.8,2.2,32.4-.7c5.7-2.9,7.1-2.7,9.8,2.2s12,3.9,26.3,2.2c14.2-1.7,7.4-7.6,15.7-4.7,8.4,2.9,12.3,1.5,19.7-1.2s-2.2,7.9.5,11.1a17.339,17.339,0,0,1,3.4,5.6s-5.4,13.3-11.8,22.1-12.9,31.6-12.9,31.6-17.7,2.2-28,0-14.7-1.5-22.1-.4-28,5.9-38,.4c-9.9-5.5-18.1,1.1-38.3,2.9-20.3,1.8-61.9.4-61.9.4a111.741,111.741,0,0,0-22.8-8.5c-11.4-2.6-6.6-2.6-16.9-5.9s-32.8,4.1-28.7,16.2c4.1,12.2-5.9,14.4-9.2,15.8-3.3,1.5-14,2.9-26.9,2.2s-5.9-1.5-15.5-7.4-3.3-7.4-1.8-15.1,0-8.2-11.1-8.6-18.1,2.8-18.1,2.8H474.7c-6.1,0-1.2,0-2.5-.3-1.2-.2-5.6-.9-5.4-2.4s0-1.6-1.7-3.8,0-3.1,1.7-6.6c1.7-3.4,5.4-3.8,6.9-7.5s2.5-4.3,5.9-7.5.2-2.9,1-8.1c.7-5.2,13.8-10.1,13.3-14s-13.3,0-26.5,2-15.2,5.9-43.7,7.4-19.9,8.1-51.6,13-37.8,21.9-49.1,25.3-14.7-2-24.6,0c-9.8,2-24.6,24.1-39.8,31s-19.7,14.2-28,33.4c-8.4,19.2-28.5,29-47.7,39.3s-26.7,36.8-38.4,49.4c-11.8,12.5-28.4,39.1-35.4,50.5s-2.8,15.6-3.8,20-14.2,46.7-14.7,48.6c-.5,2-5.4,6.4-11.3,16.7S74.6,592,74.6,592a16.144,16.144,0,0,0-5.2,4.7c-2,2.9,2.9,7.9,2.9,7.9L62.4,615s-3.4,4.2-5.9,12.3,3.2,5.6,10.1,5.6,16,2.7,16,2.7,3.9,7.6,3.9,12,4.7,28.7,4.7,28.7,1.2,13.8,5.9,20.9,2,14,4.2,14,6.4,1.5,13.8,7.6,14.7,11.8,18.7,11.3c3.9-.5,10.8-8.4,22.8-13.5,12-5.2,20.9-.5,20.9-.5l12,6.4,18.7-1.2s6.6-5.6,8.4-10.8c1.7-5.2-3.4-4.4-3.4-4.4s-12.8-2.2-14-4.7,11.5-4.2,11.5-4.2l4.7-8.8.5-11.5s.2-3.7-3.2-12c-3.4-8.4-10.6-.5-14.7-1-4.2-.5,2-2.5,6.1-6.9,4.2-4.4,7.4,1.7,7.4,1.7s4.4,6.4,13.3,2.9c8.8-3.4,0,5.9,0,12.3s-2.7,14.2-4.9,22.6,0,11.5,0,11.5a34.392,34.392,0,0,0,9.3-6.1c4.4-4.2,3.2-3.2,8.6-5.4s1.5-.5,16.9-1.7c15.5-1.2,7.4,1.7,7.4,1.7a16.308,16.308,0,0,0,11.3,8.6c8.1,1.5,3.4,13,7.9,20.9s16.7,1,24.6-5.4,22.7,0,22.7,0,7.3,12.8,8.3,25.1.5,15.7,3.9,30c3.4,14.2-2,27.5-7.4,18.2s-2.9-1.5-2,4.9c1,6.4-6.9,29.5,0,42.2,6.9,12.8,2,4.4,17.7,23.6s9.8,15.7,16.7,30c6.9,14.2,13.5,59,23.8,78.8,10.3,19.9,2.2,23.6-12.5,64.8-14.7,41.3,1.5,75.9,11.1,89.9s25.1,40.5,36.1,89.2c11.1,48.6,46.4,74.4,48.6,84s28,40.5,24.3,50.8,3.7,17.1,21.4,30.3c17.7,13.3,39.8-5.1,39.8-5.1h53.8s22.8-15.3,45.6-22,40.4-5.7,59.6-7.9,17.5-18.7,51.4-22.4c0,0,13.1-1.8,29.8-13.6s2.9-10.8,2.9-26.5,1-16.7,13.8-20.6,20.6-2.9,24.6-16.7c3.9-13.8,12.8-8.8,14.7-24.6,2-15.7-9.8-15.7-14.7-35.4s9.8-15.7,11.8-26.5,19.2-5.9,28.7-22.8c9.6-16.9,10.3-8.1,25.8-19.9s21.4-20.6,33.2-32.4,1.5-13.3,1.5-42-5.5-45-6.6-46.8-7-15.1-7-15.1-5.9-14.7-9.6-24.7c-3.7-9.9,1.5-16.9,1.5-16.9s2.2-12.9-5.9-22.8-3.7-8.5,3.3-17.3,5.9-21.1,10.8-26,12.8-14.7,23.6-24.6c10.8-9.8,17.7-13.8,30.5-27.5,12.8-13.8,13.8-9.8,19.7-16.7s1-13.8,13.8-29.5,31.9-25.5,41.3-34.9c9.3-9.3,9.8-9.8,14.2-15.7a42,42,0,0,0,5.9-10.3s15.2-15.7,23.6-20.7c8.4-4.9,3.4-4.9,1.5-18.1-2-13.3,11.3-22.1,11.3-22.1a259.566,259.566,0,0,0,8.5-25.1c3.3-12.2,14.1-13.3,9.7-18.2s-3.9-7.9-4.4-24.6-5.4-8.4-11.8-.5-6.9,7.4-10.3,7.4-9.3.5-21.1,4.9-14.7,5.9-32.4,6.4-15.7,1-31.9,3.9-16.7-8.8-16.7-8.8-3.9-10.8-3.9-15.7-11.8-10.8-14.2-11.3c-2.5-.5-3.9-4.4-9.3-12.3s-4.9-3.9-20.1-7.9c-15.2-3.9-24.1-10.8-31.4-21.6-7.4-10.8-8.8,2-8.4-5.9.5-7.9-9.3-20.6-8.8-30.9s-8.4-5.4-18.2-15.2-9.8-17.2-6.9-26.5-1.5-19.2-9.3-27.5c-7.9-8.4-13.3-15.7-19.2-29.5s-4.9-13.8-16.7-24.1-9.8-28-21.6-44.7-4.4-14.7-2.9-13.8c1.5,1,16.2,21.6,29,26s.5-8.8,4.9-14.2,3.9,3.4,5.4,10.8,10.8,7.9,24.6,21.6c13.8,13.8,12.8,27.5,20.1,37.8,7.4,10.3,16.7,15.2,11.8,28.5s-1,9.8,4.9,12.8c5.9,2.9,18.7,5.4,27,16.7,8.4,11.3,42.2,58,42.2,58s2,4.9-.5,12.8,2,10.3,4.9,26,2.5,15.2,14.2,24.1,9.3,13.8,11.3,7.4,7.9-6.9,19.7-19.2,8.4-4.9,31.4-4.9c23.1,0,18.7,1.5,31.9-8.4,13.3-9.8,5.9-6.9,35.9-10.3s21.1-19.2,21.1-19.2a22.067,22.067,0,0,0,12.8-5.9c5.4-5.4,4.4-1,15.2,3.9s3.9-11.3,15.2-14.7,8.4-12.2,20.1-18.8c11.8-6.6-2.9-14-1.1-25.4s4.4,5.9,13.3,4.4c8.8-1.5,6.6-15.5,10.3-26.9s-14-5.2-19.9-18.1,0,0-12.2-4.4-18.1-15.5-23.6-23.2-8.8-11.8-12.5-18.8-5.5,12.9-10.7,16.9c-5.2,4.1-5.5,8.8-5.9,12.2-.4,3.3-4.1,9.2-9.2,10.7-5.2,1.5-13.3-1.1-18.4-4.8-5.2-3.7-12.9-10.7-12.9-10.7a87.847,87.847,0,0,1-4.8-24.7c-.4-12.9-4.1-2.9-6.6,4.4-2.6,7.4-2.9,14.7-10.7,8.5-7.7-6.3-8.8-6.6-8.1-15.5.7-8.8-3.7-7.7-13.3-15.8a54.926,54.926,0,0,1-14-18.8,107.091,107.091,0,0,0-10.3-7.4c-4.4-2.6-4.4-4.1-1.8-11.4,2.6-7.4,2.6-4.8,5.5-4.8s5.9,2.9,14,0,3.3,4.4,16.6,12.5,13.3,10.3,26.2,24.3,21,14,36.1,22.1,7,.4,18.1-7.7,15.8-5.9,21,5.9,9.6,11.8,21.4,16.2,17.7,5.9,39.8,9.6,10.3,2.9,26.5,3.3,8.1-8.1,15.5-2.2,8.1,5.2,16.6-.4c8.5-5.5,4.4.4,13.6.4s3.7,13.6,9.9,12.5c6.3-1.1.7,4.4,13.3,9.9,12.5,5.5,12.2,4.4,12.2,4.4a108.133,108.133,0,0,1,8.8,6.6c3.3,2.9,8.8,7,4.1,7.7-4.8.7-3.7,1.1,3.7,8.5s17.7,12.9,27.6,18.8,1.5-2.6,8.8-6.6,3.7-7,7-10.3,5.2,7,7,22.8,9.2,21.4,14.7,30.6,12.9,35.7,21.7,49.7,35.7,63,43.8,77.4,7.4,27.6,14.7,36.1c7.4,8.5,6.6,6.3,18.1,0,11.4-6.3.4-6.6.7-12.2.4-5.5,3.7-2.6,9.9,1.8,6.3,4.4-7-11.8-7.7-16.2s5.2-5.5,4.1-16.6,0-5.9,1.1-14,1.5-7.7,4.1-18.4-5.5-2.6-7-2.2-4.1-4.4-2.9-9.2c1.1-4.8-1.5-14.4-1.5-14.4s0-3.3,11.8-15.5,2.9-16.6,4.1-22.8c1.1-6.3,7.7-12.2,7.7-12.2s1.1-15.5,7-22.5,5.2-8.1,4.8-17.3,9.6,2.2,20.3,6.6,2.2-.7,2.2-7.7,7.7,9.2,14.7,23.2,10.3,8.1,15.5,14,9.2,23.6,10.7,32.1,2.6,12.9,9.6,20.3,8.1,14.4,11.1,2.9c2.9-11.4,0,0,7,12.9s23.2,66,23.9,91.7c.7,25.8,12.5,30.2,14.7,45,2.2,14.7,2.2,30.9-2.2,20.6s-4.4-9.6-14.7-11.8,14.7,30.2,23.6,68.5c8.8,38.3,6.6,45,8.8,64.1,1.1,9.5,2.7,16.3,5.3,17.7.1-4.1.1-8.1.1-12.2C1714.5,437.7,1410.9,87.6,1010.7,15.3ZM420,585.5c-4.4-1-4.9-.5-12.8-8.4s-2.9-2,0-12.8c0,0,18.2,3.9,20.6,12.8C430.3,586,424.4,586.5,420,585.5Zm449,169c2.9,13.3-9.6,2.2-22.8-14C832.9,724.3,866.1,741.2,869,754.5Zm-116.4,5.9s11.8,16.2,5.2,22.1-16.9,2.9-17.7,0S746.7,770,752.6,760.4ZM630.8,981s-5.9,4.4-7.4,0-2.9-5.4,0-11.3,4.4-4.4,10.3-10.8l6.9,5.9Zm56.1-47.4c-14.9-5.2-19.7-9.6-38.9-18.4s-17.2-20.9-7.4-23.6c8.1-2.2,50.8,28.7,62.6,33.4C715,929.6,701.8,938.7,686.9,933.6Zm79,30.2c-8.1.7-11.8,2.2-16.9-11.8-5.2-14-12.5-12.5-29.5-32.4-16.9-19.9-5.2-2.9-23.6-9.6-18.4-6.6-5.2-14,9.6-24.3,0,0,11.1,3.7,18.4,11.8,7.4,8.1,12.5,16.9,28.7,31.7C768.8,943.9,774,963,765.9,963.8ZM817,1006c3.9-13.3,0-13.3,0-28,0,0,7.4.5,11.3,10.8s8.4,14.7,8.4,22.1-2.5,17.7-3.4,31.4c-1,13.8-7.9,8.8-11.8-4.9C817.5,1023.7,813,1019.3,817,1006Zm-6.9-193.3c-.7,8.8,5.3,22.1,5.3,22.1a32.075,32.075,0,0,1-12,6.6c-7.4,2.2-12.5-.7-24.3,3s-11.8-9.6-8.1-21.4,0-11.1,8.1-16.2c0,0,10.3-2.2,20.6-3.7C810.1,801.7,810.8,803.9,810.1,812.7ZM846.7,21.4s8.1.4,10.3,2.3a7.238,7.238,0,0,1,2.9,5.9c.2,2.7-6.9.2-15-4.7C836.9,20.1,842.8,22.5,846.7,21.4Zm-33.9,1.1c9.3,0,13.3-3.2,14,1.2s1,4.2-2.7,6.4-3.9,7.1-7.4,3.7c-3.4-3.4,1.7-7.3-4.9-5.6S812.8,22.5,812.8,22.5ZM897,170.4c-17.7,1-6.9,0-22.1-2.9s-30.5-2.9-43.2-4.9c-12.8-2-5.9-.5-25.1,0s-37.3,3.2-48.6,4.4-7.6,5.9-20.6,5.4-23.6,9.1-25.8,10.6-18.5,5.5-21.6,6.2-9.4.9-14.7,1.3a53.137,53.137,0,0,0-10.8,2.2,64.583,64.583,0,0,1-17.4-3.3c-9-3.1-.4-3.9,3.1-7.2s4.2,0,7.9,1.5c0,0,2.9-.2,4.1-1.4s2.7-3.4,11.5-6.9c8.8-3.4,5.2,2.2,9,4.4,3.9,2.2,6,4.2,8.2,4.2s4.2-3.7,10.8-8.8c6.6-5.2,10.3-1.5,17.7-2.5s2.9-2.7.2-4.9-3.2-3.4-3.9-6.6,1.7-3.4,10.1-7.5,4.2-8.7,11.8-15.1,14-5.6,14-5.6l5.9-2.7c5.9-2.7-8.1-4.2-18.9-4.9s1-11.3,9.6-7.1,4.9,8.8,13,6.1,1.7,6.1,5.2,6.4c3.4.2-3.7,3.4-10.8,9.8s4.4-1.5,9.1-1,2.2.7,5.6-3.2,3.2-4.9,9.3-7.9c6.1-2.9,2.5-1.7,8.2-6.3s2.6,0,25.6,0,4.6,1.8,10.1,4.1c5.5,2.2-4.8,2.2-16.4,3.7s7,3.5,12.9,4.2-.2,6.1-.2,6.1l9.8-1.5s5.5-3.7,8.5-5.2c2.9-1.5,13.3-.2,13.3-.2l.9-2.8-2.9-2.6-6.8-.7-9-1.7a8.262,8.262,0,0,1-.6-3.1c.2-1.5,4.2-1.7,12.2-2.2,7.9-.6,11.8-.6,23-.6s8.1-3.7,8.1-3.7,1.3-.7,6.1-1.5c4.8-.7,4.4,4.8,4.4,4.8l-1.3,4.8s-4.4,2-11.4,4.8-3.3,1.3-12.9,1.7,3,7.4,7.4,9.9,22.6,7.4,34.9,10.3,17.7,7.9,19.2,14.7C924.1,172.3,914.7,169.4,897,170.4Zm178.9,66.3c-16.2-1-7.9-3.4-7.9-3.4s-17.2-8.4-22.6-11.3-6.4-7.4-12.8-17.2-3.4-7.9,0-12.2c0,0,8.4-2.6,5.4-6.5-2.9-3.9-12.8-9.8-12.8-9.8s-4.4-3.9-9.8-8.8-3.9-3.9-19.2-17.2c-15.2-13.3,9.8-13.8,9.8-13.8s15.2-.5,25.5-3.9,8.4-3.9,26.5,0c18.2,3.9,3.4,13.8-4.4,13.3-7.9-.5-8.8,2-18.2,3.4-9.3,1.5-5.9,5.9,6.9,11.8s4.4,3.4,19.6,10.8,4.4,4.4,6.4,10.3,2,10.8,3.4,5.4c1.5-5.4,4.9-5.4,11.3-5.4s14.7,9.3,6.4,10.4a83.951,83.951,0,0,0-12.3,2.3,141.179,141.179,0,0,0,16.7,15.7c10.8,8.8.5,9.8,6.4,20.6C1106.3,242.1,1092.1,237.7,1075.9,236.7Zm69.5-59.6c-5.2,7-9.6-2.2-9.6-2.2L1120,162.7c-15.8-12.2,2.2-5.2,2.6-12.9s10.7-4.1,19.2-7.4a88.656,88.656,0,0,0,7,10.3c2.9,3.3,2.6,3.3,5.5,12.5C1157.2,174.6,1150.5,170.1,1145.4,177.1Zm133-10.2c-6.3-.6-10.7,0-21-3.4s1.1-5.9,21-5.9l15.8,9.3A126.425,126.425,0,0,1,1278.4,166.9Z"/><path class="b" d="M520.5,223.6c-7-3.3-10.3-10.7-9.6-3.3s-1.1,5.5,2.2,11.1c3.3,5.5,11.4,10.3,11.4,10.3s-3.3,10.3,4.1,0,6.6-11.4,9.6-14.4c2.9-2.9,9.9-11.1,4.4-11.8s-11.1-2.2-16.6,2.9Z"/><path class="b" d="M502.4,175.7c-8.5,4.1-14,3.3-12.5,9.2s2.1,5.9-.2,7.7-6.4,5.2-6.4,5.2-6.3,5.9-6.6,10.3c-.4,4.4-3.7,12.9,2.2,8.1s6.8-3.7,10.1-8.8c3.2-5.2,5.1-7.4,5.1-10.7s-1.5-5.1,4.4-8.1C504.3,185.6,502.4,175.7,502.4,175.7Z"/><path class="b" d="M637.8,231.4c-7.9,4.7-6.6,2.4-9.5,8.7-3,6.2-11.5,9.2,4.8,6.9s16.3.6,18.6-1.5a41.771,41.771,0,0,0,4.9-5.9s2.6-6.4-4.9-6.4A55.423,55.423,0,0,1,637.8,231.4Z"/><path class="b" d="M673.8,237.4c-6.9-.3-6.1.4-8.8,1.7-2.8,1.2-7,1.1-2.4,4.1s1.6,6,6,4C672.9,245.2,673.8,237.4,673.8,237.4Z"/><path class="b" d="M698.1,223.5c-8.5,1.1-10.3,1.1-12.2,3.3s-10.7,3.3-1.8,4.1l8.8.7s-1.1-.6,5.2-2.7,4.4-1,6.3-2.1S698.1,223.5,698.1,223.5Z"/><path class="b" d="M676.2,219.3c-1.7,1.7-1.3,7.6,3.3,5.7,4.6-1.8,2.8-.7,4.6-1.8s3.5-2.2,2.4-2.9C685.4,219.5,676.2,219.3,676.2,219.3Z"/><path class="b" d="M656.8,218c1.7,2.6.5,6.2,4.4,3.7s-1.4-3.6,2.9-2.1c4.2,1.5,5.8-.2,5.8-.2v-6.9h-8.6Z"/><path class="b" d="M664.5,206.4c-2.7,1.7-6.8,2.4-2.9,3.5s4.4,2.6,5.5.9a29.1,29.1,0,0,0,1.9-3.5Z"/><path class="b" d="M681,207.7c-3.2,1.1-7.1.4-4.7,2.4a26.132,26.132,0,0,0,3.9,2.8s2.6-.5,2.6-1.3S681,207.7,681,207.7Z"/><path class="b" d="M1550.7,639.5c1.4,12.4,2.9,8.1,0,16.9s-8.1,6.6-5.9,19.2c2.2,12.5,9.6,32.4,18.4,33.2,8.8.7,21.4,3.7,19.2-11.1C1580.2,683,1549.6,629.6,1550.7,639.5Z"/><path class="b" d="M1105.6,1008c-11.4,6.8-9.6,11.1-15.5,19.2a72.572,72.572,0,0,1-14,14s-4.4,2.6-8.1,9.4-19.9,21.5-19.9,21.5l-19.9,7.4s-21.4,2.2-19.2,19.2c2.2,16.9,4.4,20.6,3.7,29.5-.7,8.8-3.8,25.8-3.8,25.8s-19,14-20.5,28,8.8,18.4,9.6,30.2c.7,11.8-13.3,15.5.7,23.6s28,0,28,0,11.8,27.3,23.6-7.4c11.8-34.6,22.1-57.5,22.1-57.5s19.2-27.3,19.2-39.8,1.5-53.1,7.4-48.6c5.9,4.4,16.2,10.3,14-8.1s-7.4-29.5-5.9-39.8C1108.5,1024.2,1120.3,999.2,1105.6,1008Z"/><path class="b" d="M1169.9,572.5c10.8,1.2,17.4-3.4,16.2,2.9-1.2,6.4,5.4,4.4-6.6,8.6s-9.6,8.8-15.7,5.2c-6.1-3.7-9.1-6.1-6.4-9.6C1160.1,576.2,1169.9,572.5,1169.9,572.5Z"/><path class="b" d="M794.9,237.4c-17.6,4.6-45.2,3.8-17.2,10.4s9.8,13.5,28,6.6,22.1-9.4,22.1-14.8S810.5,233.4,794.9,237.4Z"/></g><g transform="matrix(0.875, -0.485, 0.485, 0.875, 176.945, 4108.266)"><path class="c" d="M102.991,73.067c4.359-1.731,8.686-3.526,13.044-5.192a1.711,1.711,0,0,1,1.378.481,25.6,25.6,0,0,1,1.763,2.5c.288-.962.481-1.7.737-2.532,1.058.064,1.955.32,1.346,1.57-1.25,2.564.064,4.423,1.378,6.41,1.122,1.667,2.147,3.4,3.365,5.288-.641-.064-.994-.1-1.41-.128-1.314,5.224-2.628,10.448-3.846,15.673-.1.385.481,1.09.929,1.41,3.622,2.756,6.731,5.929,8.429,10.256.513,1.282.8,2.628,1.314,4.423-14.679-9.615-30.64-12.467-47.338-12.564-16.73-.1-32.467,3.59-47.082,12.532a14.624,14.624,0,0,1,2.372-6.987,16.517,16.517,0,0,1,3.013-3.91c1.7-1.378,1.667-2.724.8-4.391a6.042,6.042,0,0,1,.481-7.115c1.186,2.372,2.34,4.743,3.526,7.083.1-.032.224-.064.32-.1-1.282-5.449-2.564-10.9-3.878-16.442H42.256c3.013-4.519,5.865-8.878,8.782-13.2a1.511,1.511,0,0,1,1.314-.353,16.994,16.994,0,0,1,2.564.929c-.192-.994-.353-1.763-.513-2.66.449-.192.929-.385,1.442-.609a2,2,0,0,1,.353.769c.064,2.66,1.538,4.038,4.006,4.743a46.439,46.439,0,0,1,4.551,1.923,10.486,10.486,0,0,0-.128,2.34c.8,3.75,1.7,7.468,2.564,11.218a5.819,5.819,0,0,0,.577,1.506c-.16-4.231-.256-8.4,4.647-10.48.192,3.526.417,7.147.609,10.769h.128V70.568a19.823,19.823,0,0,1-2.019-1.25c-.417-.321-.641-.865-1.058-1.186-2.211-1.6-1.346-3.91-1.09-5.865.1-.641,1.667-1.122,2.6-1.667.16.1.321.16.513.256v8.2c.16.032.288.064.449.1,3.846-3.526,7.66-7.051,11.6-10.673.994.833,1.923,1.6,3.045,2.564.1-1.058.16-1.987.256-2.949h1.506a3.491,3.491,0,0,1,.1.962c-.545,2.852.705,4.808,2.917,6.506a50.153,50.153,0,0,1,4.167,3.878c-.417.673-.929,1.154-.962,1.635-.064,4.679-.032,9.359.128,14.166.481-3.045,2.4-4.551,5.1-5.256-.417,2.692-.865,5.384-1.186,8.109a5.16,5.16,0,0,0,.417,1.6c.353-.417.9-.769,1.026-1.218,1.25-4.84,2.468-9.679,3.686-14.583-.385-.288-.737-.577-1.09-.865C103.055,73,102.991,73.067,102.991,73.067Zm-21.217-.417c-.064,1.154-.1,2.211-.192,3.237-.32,3.878-.16,4.038,3.75,3.814.513-.032,1.026,0,1.6,0V72.651Zm29.9,6.282c-.513,2.083-.994,4.07-1.474,6.122,1.7.641,3.269,1.218,4.968,1.859.545-2.147,1.026-4.1,1.538-6.186C114.978,80.118,113.407,79.542,111.677,78.933ZM58.666,84.8c-.481-1.891-.865-3.59-1.346-5.256A1.274,1.274,0,0,0,56.294,79a16.083,16.083,0,0,0-3.141,1.154,1.441,1.441,0,0,0-.673,1.186c.321,1.763.769,3.493,1.186,5.288C55.429,85.984,56.967,85.439,58.666,84.8Z" transform="translate(-25.194 -39.481)"/><path class="c" d="M120.653,9.517c-.449,1.891,1.186,4.583-2.308,4.968V9.549c-3.3.353-5.865,2.115-8.846,3.718.641-3.077,2.628-4.775,4.647-6.666-1.41.288-2.788.577-4.583.962.481-.865.705-1.891,1.314-2.276a54,54,0,0,1,4.936-2.4,2.466,2.466,0,0,0,1.154-.962A2.93,2.93,0,0,1,119.5,0a2.869,2.869,0,0,1,2.66,1.955,2.293,2.293,0,0,0,1.41,1.09,7.75,7.75,0,0,1,4.968,2.628,12.382,12.382,0,0,1,1.25,2.372c-1.763-.449-3.141-.833-4.519-1.186,1.827,2.051,3.782,3.782,4.167,6.795C126.583,11.985,124.051,9.9,120.653,9.517Z" transform="translate(-74.457)"/><path class="c" d="M244.5,39.2c1.538-2.179,3.814-2.692,6.057-3.558-1.09-.256-2.179-.545-3.558-.865.513-.417.865-.929,1.314-1.058a8.674,8.674,0,0,1,3.109-.513c2.115.16,4.07.641,6.314,0,2.276-.673,3.526,1.218,2.532,3.237,3.333,2.372,3.782,4.006,1.57,5.449-.833-.737-1.667-1.442-2.82-2.436.449,2.532.032,4.391-1.474,5.737-.994-1.795-1.955-3.558-2.917-5.352-2.019,1.026-2.4,3.814-5.1,2.949.9-1.122,1.795-2.211,2.788-3.461C249.724,38.238,247.192,39.039,244.5,39.2Z" transform="translate(-166.19 -22.471)"/><path class="c" d="M13.281,96.543c-2.179.545-4.231,1.058-6.442,1.6.8,1.474,2.692,2.179,1.026,3.91-.673-.8-1.346-1.57-2.211-2.6-.609,1.026-1.186,1.859-1.667,2.788a13.375,13.375,0,0,1-1.7,2.852v-5.032c-.705.865-1.282,1.6-2.019,2.5C-.5,100.805.14,99.4.973,98.081a2.235,2.235,0,0,0,.513-2.115c-.481-1.506.8-2.564,2.34-2.211a2.872,2.872,0,0,0,1.795-.224c1.923-1.122,3.718-1.218,5.192-.032-.833.449-1.667.865-2.917,1.506C10.011,95.293,11.966,95,13.281,96.543Z" transform="translate(0 -62.956)"/><path class="c" d="M134.149,90c1.346,1.6,2.532,2.788,3.461,4.167a1.841,1.841,0,0,1-.481,2.756c-1.09.8-2.051,1.795-3.429,3.045C133.86,96.538,133.988,93.493,134.149,90Z" transform="translate(-90.901 -61.157)"/><path class="c" d="M136.076,52.327c-.192-5.7-.064-5.993,2.82-6.827a18.376,18.376,0,0,1-.1,4.615C138.576,50.916,137.23,51.429,136.076,52.327Z" transform="translate(-92.476 -30.919)"/><path class="c" d="M229.382,100.164a21.788,21.788,0,0,1,.321,4.07,4.059,4.059,0,0,1-1.41,2.211A5.178,5.178,0,0,1,225.6,107.5l3.461-7.4A1.41,1.41,0,0,1,229.382,100.164Z" transform="translate(-153.347 -68.02)"/><path class="c" d="M241.033,89.237c-.16.1-.32.224-.481.321-1.442-3.942.417-7.692,3.686-7.564L240.968,89.3Z" transform="translate(-163.171 -55.714)"/><path class="c" d="M36.263,130.6c1.186,1.667,2.34,3.365,3.686,5.256-2.276-.256-4.134-.769-4.743-2.949-.192-.673.288-1.538.481-2.308Z" transform="translate(-23.944 -88.744)"/><path class="c" d="M41.3,148.3c4.551.8,5,1.635,2.724,5.449C43.095,151.922,42.229,150.159,41.3,148.3Z" transform="translate(-28.116 -100.772)"/><path class="c" d="M254.9,65.9c-1.955,1.442-1.859,4.583-5,4.1C250.958,67.118,252.336,65.9,254.9,65.9Z" transform="translate(-169.859 -44.781)"/><path class="c" d="M27.5,119.2c2.692,2.532,2.692,2.532,1.282,4.359C26.7,121.6,26.538,121.059,27.5,119.2Z" transform="translate(-18.353 -80.998)"/><path class="c" d="M176.062,103.5h5.16v7.051c-.577,0-1.09-.032-1.6,0-3.91.224-4.07.064-3.75-3.814C176,105.711,176.03,104.686,176.062,103.5Z" transform="translate(-119.482 -70.33)"/><path class="c" d="M266.874,123.1c1.731.609,3.3,1.186,5.032,1.795-.513,2.083-1.026,4.038-1.538,6.186-1.7-.641-3.237-1.218-4.968-1.859C265.913,127.138,266.394,125.183,266.874,123.1Z" transform="translate(-180.391 -83.648)"/><path class="c" d="M91.4,129.084c-1.731.609-3.269,1.186-5.032,1.827-.417-1.827-.865-3.526-1.186-5.288a1.485,1.485,0,0,1,.673-1.186A17.507,17.507,0,0,1,89,123.282c.288-.064.962.256,1.026.545C90.569,125.494,90.954,127.193,91.4,129.084Z" transform="translate(-57.931 -83.767)"/></g><path class="c" d="M12.315,22.607a.276.276,0,0,0-.305-.045c-.083.023-.163.06-.245.085a.214.214,0,0,1-.225-.049.1.1,0,0,1,.022-.171,3.362,3.362,0,0,1,.409-.186,1.279,1.279,0,0,0,.458-.269.617.617,0,0,1,.18-.108c.176-.069.209-.117.193-.289-.007-.078-.013-.157-.014-.235,0-.14,0-.278,0-.417a4.331,4.331,0,0,0-.177-1.143,1.814,1.814,0,0,1-.079-.7c.019-.2.063-.4.094-.606a2.762,2.762,0,0,0,.019-.747c-.02-.168-.039-.338-.059-.507-.007-.063-.017-.125-.029-.189,0-.017-.013-.042-.024-.045a.055.055,0,0,0-.048.02.516.516,0,0,0-.079.124,1.533,1.533,0,0,0-.085.294l.138-.13.017.009a.347.347,0,0,1,0,.055c-.02.094-.04.187-.063.281a.635.635,0,0,1-.17.3c-.1.1-.2.19-.3.281a.091.091,0,0,0-.007.143.847.847,0,0,1,.2.384.258.258,0,0,1-.022.094.321.321,0,0,1-.1-.049c-.066-.066-.121-.147-.19-.212s-.161-.111-.246-.056c-.063.04-.079.088-.032.148s.089.109.135.164a1,1,0,0,1,.193.4,3.382,3.382,0,0,1,.075.415.3.3,0,0,1-.027.1.393.393,0,0,1-.157-.25,1.19,1.19,0,0,0-.271-.481,1.4,1.4,0,0,0-.21-.193.423.423,0,0,0-.317-.023c-.059.01-.043.062-.033.1.046.164.1.328.144.491.013.046.053.1-.006.134s-.108,0-.138-.05a3.606,3.606,0,0,1-.191-.32c-.068-.127-.124-.258-.191-.384a.189.189,0,0,0-.082-.06c-.04-.022-.063,0-.076.04-.1.35-.209.7-.3,1.048a2.461,2.461,0,0,1-.177.6c-.072.134-.138.272-.222.4a.636.636,0,0,1-.305.21c-.122.052-.248.1-.366.16-.071.036-.127.1-.2.138a.15.15,0,0,1-.209-.063.138.138,0,0,1,.036-.176c.053-.052.109-.1.163-.15a.361.361,0,0,0,.039-.053l-.009-.019-.143.017c-.119.016-.239.026-.357.052-.164.036-.325.089-.489.125a.4.4,0,0,1-.17-.013.085.085,0,0,1-.042-.072.155.155,0,0,1,.073-.065c.083-.037.168-.068.253-.1.007,0,.014-.01.017-.032-.088.013-.176.029-.265.039a.214.214,0,0,1-.2-.055.078.078,0,0,1,.024-.125c.016-.009.039-.023.042-.037.019-.1.076-.109.155-.121s.137-.01.206-.016a.079.079,0,0,0,.052-.019c.089-.1.21-.082.322-.1.13-.014.261-.017.389-.032a.4.4,0,0,0,.118-.042,1.257,1.257,0,0,1,.389-.119c.079-.01.112-.065.112-.148,0-.111-.006-.222,0-.331.014-.214.037-.429.055-.643.007-.1.009-.194.016-.292s.016-.2.029-.3a.276.276,0,0,0-.167-.3,1.151,1.151,0,0,1-.3-.229.712.712,0,0,0-.086-.063,1.486,1.486,0,0,0-.04.512c-.06.012-.075-.033-.085-.068-.046-.145-.1-.289-.128-.438-.027-.128-.03-.262-.048-.393a.615.615,0,0,0-.033-.132,1.778,1.778,0,0,0,.009,1.25.287.287,0,0,1-.19-.2,4.381,4.381,0,0,1-.183-.641,1.141,1.141,0,0,1,.173-.858c.039-.056.081-.109.121-.166a.188.188,0,0,0,.039-.164,1.7,1.7,0,0,1,0-.19c-.023.075-.043.148-.068.222a.335.335,0,0,1-.04.063c-.014-.024-.045-.05-.043-.073.01-.112.032-.223.043-.335a1.15,1.15,0,0,1,.23-.468,5.126,5.126,0,0,0,.269-.533c.122-.271.236-.547.354-.821.022-.049.042-.1.066-.147a.964.964,0,0,1,.075-.1c.052.119-.032.216-.026.331a.605.605,0,0,0,.222-.343,2.717,2.717,0,0,0,.03-.376c.012-.3.014-.606.032-.908a3.058,3.058,0,0,1,.135-.718q.2-.663.383-1.33a2.012,2.012,0,0,0,.039-.8.279.279,0,0,0-.069-.134,1.812,1.812,0,0,0-.452-.35A.8.8,0,0,1,9.349,9.1a.9.9,0,0,0-.2-.3,2.265,2.265,0,0,1-.184-.24.523.523,0,0,0-.357-.22C8.442,8.3,8.268,8.3,8.1,8.276a.948.948,0,0,1-.448-.154.939.939,0,0,0-.3-.112,3.9,3.9,0,0,1-.43-.189.375.375,0,0,0-.151-.046.6.6,0,0,1-.381-.1A3.2,3.2,0,0,0,6.037,7.5a.339.339,0,0,1-.176-.187.193.193,0,0,0-.212-.128,2.119,2.119,0,0,1-1.06-.33c-.41-.252-.809-.521-1.215-.779A2.059,2.059,0,0,0,2.8,5.8a.3.3,0,0,0-.279.1.832.832,0,0,1-.438.21.224.224,0,0,0-.13.083.33.33,0,0,1-.521.032,1.69,1.69,0,0,1-.35-.56C.935,5.287.81,4.9.659,4.53a3.941,3.941,0,0,0-.41-.723,1.241,1.241,0,0,1-.23-.639,3.16,3.16,0,0,1-.012-.436A1.376,1.376,0,0,1,.2,2.021a.646.646,0,0,1,.462-.255.433.433,0,0,1,.379.153,3.079,3.079,0,0,1,.452.613.4.4,0,0,0,.157.174.149.149,0,0,1,.049.05c.055.071.108.141.161.213a.953.953,0,0,1,.063.092.541.541,0,0,0,.18.21.1.1,0,0,1,.049.05.175.175,0,0,0,.173.122.237.237,0,0,1,.222.167.442.442,0,0,0,.2.2.693.693,0,0,1,.317.458.349.349,0,0,0,.21.266,9.2,9.2,0,0,0,1.337.557c.322.092.646.177.97.258.153.037.308.059.462.088.048.009.062-.016.075-.06A2.288,2.288,0,0,1,6.4,4.668a1.447,1.447,0,0,1,.42-.416.4.4,0,0,1,.315-.045,2.482,2.482,0,0,1,.379.125,2.407,2.407,0,0,1,.322.187A.445.445,0,0,0,8.1,4.6a.46.46,0,0,1,.321.122,1.2,1.2,0,0,0,.272.145c.21.094.42.187.633.272.124.05.255.081.38.128A.2.2,0,0,0,9.9,5.25a3.536,3.536,0,0,0,.638-.453c.114-.111.235-.214.358-.315a.978.978,0,0,1,.176-.105,1.046,1.046,0,0,0,.393-.436.92.92,0,0,1,.259-.288c.013-.01.027-.024.042-.024.111-.009.164-.086.214-.171a.919.919,0,0,1,.335-.276,1.211,1.211,0,0,0,.317-.3.777.777,0,0,1,.189-.16c.1-.066.2-.125.3-.186a.426.426,0,0,1,.42-.02c.107.048.1.035.176-.048.1-.107.18-.226.278-.331a1.791,1.791,0,0,1,.622-.4,9.111,9.111,0,0,1,1.209-.392.423.423,0,0,0,.312-.242c.069-.181.132-.366.2-.547a.424.424,0,0,1,.082-.145.575.575,0,0,0,.163-.379c.012-.115.072-.137.176-.086.289.14.584.268.874.409.209.1.415.21.616.324.18.1.357.209.528.324a1.407,1.407,0,0,1,.438.478.192.192,0,0,1,0,.209c-.039.062-.069.128-.108.19-.094.141-.236.107-.369.1a.95.95,0,0,0-.371-.02.938.938,0,0,1-.158.055c-.107.013-.214.009-.321.017a.4.4,0,0,0-.155.036,1.132,1.132,0,0,1-.468.119.434.434,0,0,1-.161-.016A.086.086,0,0,0,17,2.2c-.019.022-.035.046-.053.066a.072.072,0,0,1-.125-.007c-.024-.032-.046-.065-.069-.1a.1.1,0,0,0-.115-.032c-.013,0-.027.007-.04.013a5.925,5.925,0,0,0-.87.465c-.132.1-.259.206-.384.312q-.335.287-.665.579c-.127.111-.137.118-.033.311a5.264,5.264,0,0,1,.412.857.314.314,0,0,1-.134.393.534.534,0,0,0-.079.072,1.042,1.042,0,0,1-.321.243.387.387,0,0,0-.191.189.69.69,0,0,1-.265.258c-.144.1-.279.216-.416.33-.292.243-.56.517-.877.731-.04.027-.085.05-.124.082s-.046.066.012.094a.83.83,0,0,0,.105.039.942.942,0,0,1,.544.466,2.747,2.747,0,0,1,.233.711c.069.269.171.531.245.8.058.212.1.429.14.645a6.3,6.3,0,0,1,.058,1.176c0,.081-.017.161-.012.242.013.177.032.353.056.528.03.23.075.461.1.692a4.414,4.414,0,0,1,.027.584c-.006.217-.037.433-.053.651a2.742,2.742,0,0,0,0,.288,1.063,1.063,0,0,1-.181.628,1.509,1.509,0,0,0-.137.278.566.566,0,0,0-.04.213,1.239,1.239,0,0,1-.1.439.983.983,0,0,0-.068.491c.026.166.029.335.046.5.022.212.048.422.071.633.007.068.01.137.014.206.01.164.016.328.03.491.02.24.048.479.071.72.02.214.055.429.055.643a5.544,5.544,0,0,1-.055.672c-.032.269-.078.536-.112.8-.017.134-.023.269-.03.4,0,.1,0,.207,0,.311a2.5,2.5,0,0,0,.109.675,1.7,1.7,0,0,1,.079.551s0,.006,0,.007c-.065.145,0,.286.016.43,0,.062,0,.124-.066.143s-.111-.035-.137-.089a1.491,1.491,0,0,1-.056-.166.114.114,0,0,0-.014-.039c-.023-.026-.049-.05-.073-.076-.023.029-.059.055-.066.088-.017.081-.02.164-.033.245a.466.466,0,0,1-.033.135.105.105,0,0,1-.137.059.179.179,0,0,1-.083-.122c-.012-.107,0-.216-.006-.324a.255.255,0,0,0-.035-.079c-.026.02-.066.036-.076.062-.05.131-.089.266-.143.4a.163.163,0,0,1-.1.083c-.092.022-.164-.068-.144-.171s.043-.187.059-.282a.552.552,0,0,0-.007-.128c-.045.013-.1.014-.134.043-.066.062-.118.141-.18.209a1.482,1.482,0,0,1-.181.174.1.1,0,0,1-.14-.012.109.109,0,0,1-.007-.138c.06-.105.128-.207.191-.312A.25.25,0,0,0,12.315,22.607Z" transform="matrix(0.966, 0.259, -0.259, 0.966, 1038.768, 4064.444)"/><path class="d" d="M27.1,10.849c.133-.133.333-.05.467-.183-.1-.25-.45-.3-.533-.533-.033-.083.017-.183,0-.267C27,9.716,27,9.8,26.868,9.749a1.761,1.761,0,0,0-.317-.1c-.017-.133.167-.15.15-.283a.193.193,0,0,1-.15-.233c-.2-.033-.317-.017-.367-.25-.05-.183.017-.25.05-.417.05-.217-.017-.4.1-.6-.2-.017-.35.167-.55.133,0-.05-.017-.083-.017-.133-.05-.017-.083-.017-.133-.033-.067-.2-.05-1.067-.4-.917-.05.3.017.467-.35.55-.35.067-.45-.183-.733-.233a.13.13,0,0,1,.033.133c-.083.05-.183.183-.283.167a1.961,1.961,0,0,1-.167-.667c-.017-.117-.017-.217-.15-.267a.786.786,0,0,0-.5.167,3.38,3.38,0,0,1-.7.333c-.2-.283-.067-.65.017-.967a1.509,1.509,0,0,0,.133-.8.181.181,0,0,1-.183,0,5.962,5.962,0,0,1,.5-.817c-.133.133-.167,0-.283-.017-.083-.017-.183.067-.267-.017-.067-.067.033-.15.017-.25C22.285,4,22.118,4.2,22,4.05c-.033-.05,0-.35-.033-.433-.05-.167-.1-.117-.2-.233-.117-.117-.117-.217-.3-.217h-.4c-.2.017-.433.15-.583,0-.05-.05-.05-.133-.117-.183a.489.489,0,0,0-.167-.05,1.892,1.892,0,0,1-.383-.25c-.1-.067-.183-.25-.267-.3-.117-.067-.233.05-.367.017-.067-.017-.083-.05-.133-.083,0-.05-.033-.083-.067-.067a.106.106,0,0,0-.1,0c-.067-.017-.117-.033-.183-.05-.05-.017-.083-.067-.133-.083-.15-.05-.217.017-.333-.083-.05-.05-.083-.167-.133-.233-.083-.1-.217-.117-.3-.2-.2-.167-.083-.45-.25-.633-.25,0-.367.35-.6.433-.083.033-.167.033-.25.067a1.371,1.371,0,0,1-.633.1,1.086,1.086,0,0,0-.267.05c-.183,0-.1.017-.183-.117-.1-.167-.133-.117-.267-.217-.1-.067-.117-.217-.233-.267-.067.033-.083.1-.133.133-.033-.083,0-.15-.033-.233-.167.067-.2.35-.467.317-.05-.017-.05-.067-.1-.067-.067,0-.117.083-.2.067-.05,0-.117-.083-.167-.083-.1-.017-.217.05-.3,0-.167-.083-.05-.3-.1-.45-.2,0-.117-.2-.15-.333-.233-.05-.383.45-.567.4-.117-.033-.117-.25-.233-.317-.05-.017-.117,0-.183-.017a2.232,2.232,0,0,1-.2-.1C12.119.267,11.9.183,11.853,0c.1.233-.4.383-.533.45a1.35,1.35,0,0,1-.683.117,1.37,1.37,0,0,0-.45-.033c-.117.033-.167.133-.3.15-.1.017-.2-.017-.3,0C9.57,1.133,9.17.833,9,.617a.634.634,0,0,0-.15.217C8.786.8,8.7.75,8.636.717c-.133-.033-.15,0-.283.033A3.759,3.759,0,0,1,8.536.383C8.4.25,7.72.983,7.62,1.05A.222.222,0,0,1,7.67.917c-.083.017-.117.1-.2.133a1.168,1.168,0,0,1-.233.05A.762.762,0,0,1,6.8,1.067c-.283-.05-.25.117-.367.3-.05.083-.233.167-.083.25-.133-.017-.317.083-.483.067a.509.509,0,0,0-.433.133c-.267.283-.233.8-.55,1.05-.167.117-.4.067-.55.15-.2.083-.267.7-.317.9a1.3,1.3,0,0,1-.133.383c-.017.033-.067.117-.083.15-.05.133.017.283-.017.417a.461.461,0,0,1-.283.3c-.25.15-.433.067-.7.117-.2.05-.1.2-.117.383a.794.794,0,0,1-.15.483c-.217.25-.733.183-.783.55-.05.35.283.5.383.767a.754.754,0,0,0-.133.7c.117.217.567.333.767.433.25.117.55.267.417.567a.628.628,0,0,0-.117.35.428.428,0,0,0,.2.35c.133.1.267.117.383.233a2.714,2.714,0,0,1,.183.283.653.653,0,0,0,.617.233c.1-.017.167-.117.267-.083.117.017.117.15.15.25a1.756,1.756,0,0,1-.117.183c-.083.117-.15.3-.267.383a.271.271,0,0,1-.417-.083c-.167,0-.267.217-.417.217s-.167-.133-.267-.183c-.15-.067-.667.25-.633.483.017.133.25.183.383.25.2.1.383.117.417.383.033.317-.067.767-.467.633.017-.25-.283-.1-.4-.067-.183.033-.283.083-.183.25s.417.183.483.367c.05.133-.117.383-.233.45-.333.167-.617-.383-.967-.267a2.34,2.34,0,0,0-.55.433.652.652,0,0,1-.267.167c-.067.017-.15-.017-.217,0A.376.376,0,0,1,.5,14.7c-.133.067-.283,0-.4.05-.15.067-.05.567,0,.683.05.133.15.167.233.267.117.133.367.483.55.533.15.05.267-.017.433.067.133.067.217.267.333.317.017-.083.117-.6.267-.317a1.038,1.038,0,0,1,.833.033c.183.067.2.15.067.267-.217.2-.267.167-.033.417.067.067.183.167.2.267,0,.05-.067.067-.067.117-.017.2.183.233.317.317a2.331,2.331,0,0,0,.55.25,1.168,1.168,0,0,0,.233.05c.05.017.067.067.117.067a5.409,5.409,0,0,0,.9,0,4.358,4.358,0,0,1,.467,0,3.49,3.49,0,0,1,.383.133c.417.1.417-.25.483-.533.05-.167.183-.317.367-.217.1.05.1.2.233.083a.88.88,0,0,0,.483.233,1.17,1.17,0,0,0,.633.067c.183-.083.017-.333,0-.467v-.117c.017.017.033.033.033.05.017.017.017.033.033.033l.033.033.067.067.133.133a1.411,1.411,0,0,0,.317.233,3.108,3.108,0,0,0,.333.167l.333.133a5.332,5.332,0,0,1,.617.317,2.946,2.946,0,0,1,.283.2,1.544,1.544,0,0,1,.233.233c.017.017.033.05.05.067s.033.05.05.067a.418.418,0,0,1,.067.117,1.019,1.019,0,0,0,.083.2,3.013,3.013,0,0,1,.167.283h0v.167a4.187,4.187,0,0,0,.067.45c.017.083.05.15.067.233.033.083.067.15.1.217.067.15.15.283.217.417V21.1a.836.836,0,0,0,.033.2,1.324,1.324,0,0,0,.1.367,4.279,4.279,0,0,0,.317.683v.017c.017.05.017.1.033.15l.017.117.017.05.017.05c.017.067.017.15.033.233A2.124,2.124,0,0,0,12,23.2c.017.033.017.067.033.083l.033.1c.033.117.067.233.1.333v.05l.017.083c0,.017.017.05.017.067a1.811,1.811,0,0,1,.017.3V24.7c0,.083.017.15.017.217a.845.845,0,0,1,.033.15.126.126,0,0,0,.017.067v.05c-.017.033-.017.067-.033.1-.05.167-.067.35-.1.517-.017.167-.033.35-.033.517v.533c.017.083.033.167.05.233a7.958,7.958,0,0,0-.133,1.25v.1h0c0,.017-.017.017-.017.033l-.033.083c-.067.2-.15.417-.233.633-.083.233-.15,1.617-.183,1.916H12.7c.017,0,.017-.05.033,0,0,.017.017,0,.017,0,0,.017.017,0,.017,0h.017c.017,0,.017-.017.033,0s.033-.017.033,0c.017.017.033-.017.05,0s.033,0,.067,0c.017.017.05,0,.083,0h.133c.017,0,.033-.017.033,0,.017,0,.017-.017.033,0h.033c0-.017-.017,0-.017,0h-.05c-.017,0-.017.033-.033,0-.017-.083-.033.1-.033,0,0-.05-.017.05-.017,0l-.017-1.417-.017-.067a.1.1,0,0,0-.017-.067V29.23c0-.067.017-.133.017-.2a3.609,3.609,0,0,1,.067-.417L13.2,28.4l.017-.117c0-.033.017-.083.017-.133a2.341,2.341,0,0,0,0-.483v-.033c.017-.033.017-.067.033-.1A.392.392,0,0,0,13.3,27.4a2.711,2.711,0,0,1,.183-.383H13.5a1.79,1.79,0,0,0,.25-.117,7.318,7.318,0,0,0,.833-.567c.133-.1.267-.183.383-.267a1.243,1.243,0,0,1,.2-.117l.05-.033a.126.126,0,0,1,.067-.033c.033-.033.083-.05.117-.083.05-.033.1-.083.15-.117.017,0,.017-.017.033-.017l.083-.05c.2-.117.4-.25.583-.383l.033-.033.067-.05c.017,0,.033-.017.05-.017a.99.99,0,0,0,.133-.067c.05-.033.1-.05.15-.083.083-.05.167-.117.25-.167.033-.017.083-.05.117-.067.05-.017.083-.05.133-.067a1.852,1.852,0,0,1,.267-.117.282.282,0,0,1,.083-.033h.017a.616.616,0,0,0,.183-.083c.083-.033.167-.083.25-.117a5.619,5.619,0,0,0,.533-.317,2.2,2.2,0,0,0,.467-.417,3.52,3.52,0,0,0,.35-.517.5.5,0,0,0,.067-.167,1.9,1.9,0,0,0,.167-.317c.05-.117.083-.233.117-.333a2.664,2.664,0,0,0,.083-.35.822.822,0,0,0-.017-.4c0-.017-.017-.033-.017-.05s-.017-.033-.017-.05c-.017-.033-.033-.05-.05-.083l-.1-.15h0v-.117l-.017-.683v-.333c0-.033.017-.05.033-.083.033-.033.083-.067.117-.1a.909.909,0,0,1,.283-.167c.117-.067.2-.15.283-.2.017-.017.033-.017.05-.033h.033c.05,0,.1-.017.167-.017a.211.211,0,0,0,.1-.017c.033,0,.05-.017.083-.017h.017a.363.363,0,0,1,.067.083c.117.183.167.4.35.533.433.317,1.267-.017,1.716-.217.733-.333-.917-.933-.7-1.383a8.4,8.4,0,0,1,.933.117.644.644,0,0,0,.433,0,.112.112,0,0,1-.05-.133c.133-.017.233.067.367.067.067-.25-.117-.417.25-.467.317-.05.383.067.483.317.1.017.2,0,.283.067s.1.3.167.383c.267.4.4-.017.7.117-.033.233.2.35.4.367.267.033.383-.067.4-.333.017-.2-.1-.367-.083-.55.017-.25.267-.517.383-.733-.067-.117-.133-.15-.167-.283-.05-.233.133-.367.2-.567.083-.267-.117-.517-.3-.717-.15-.167-.2-.183-.15-.4a2.43,2.43,0,0,0,.117-.317,5.437,5.437,0,0,1,.15-.883c-.133-.133-.517.033-.683.05-.25.017-.167,0-.267.2-.083.167-.3.617-.567.5-.267-.1-.133-.567-.333-.683a1.064,1.064,0,0,0-.15.75c0,.133.033.267-.117.267-.1,0-.117-.05-.2-.117a2.122,2.122,0,0,1-.317-.217A.206.206,0,0,0,24.1,15.1c-.1.05-.183.15-.283.1a1.75,1.75,0,0,0,.133-.583c-.267-.1-.1-.117-.167-.333-.167-.083-.333-.133-.5-.217-.183-.083-.467-.183-.65-.017a2.276,2.276,0,0,0-.217.517c0,.017-.017.033-.017.05-.167-.067-.45,0-.55-.133a1.18,1.18,0,0,1,0-.483c0-.267.067-.383.35-.317.317.067.583.25.883.333-.133-.067-.35-.2-.3-.383.117-.1.233.033.3-.133.033-.067-.017-.1.017-.15.05-.067.267-.083.35-.1.217-.05.617-.233.817-.017.2.233.05.683,0,.933a2.194,2.194,0,0,0,.567-.067c.133-.017.5.05.617-.05a.758.758,0,0,0-.133-.5c-.067-.083-.183-.083-.233-.167a.41.41,0,0,1,.333-.067c-.333-.017,0-.367.117-.433.267-.15.55-.067.833-.133.033-.133.067-.25.2-.267.067,0,.117.067.2.033a.958.958,0,0,0,.183-.45c-.017-.133-.133-.133-.1-.3.017-.133.133-.2.233-.267.133-.083.1,0,.183-.167a.432.432,0,0,0,.05-.283C27.234,10.932,27.118,10.949,27.1,10.849ZM6.137,17.082a.74.74,0,0,0-.167-.367,2.687,2.687,0,0,1-.15-.483.9.9,0,0,0-.15-.2.061.061,0,0,1-.017-.05c.25.1.483.2.733.3.15.05.317.1.467.167a.237.237,0,0,0-.1.033.539.539,0,0,0-.233.2A4.346,4.346,0,0,1,6.137,17.082Zm4.583,1.533a1.243,1.243,0,0,0-.233-.283,1.819,1.819,0,0,0-.283-.217C10,18,9.82,17.9,9.62,17.8a1.439,1.439,0,0,1-.267-.167,1.344,1.344,0,0,1-.233-.2c-.15-.15-.283-.317-.433-.483l-.117-.117c-.017-.017-.05-.033-.067-.05l-.033-.033c-.017-.017-.033-.017-.033-.033-.117-.067-.217-.083-.3-.133a1.806,1.806,0,0,0-.317-.133.6.6,0,0,0-.183-.033.414.414,0,0,1-.15-.017.487.487,0,0,1-.15-.033.592.592,0,0,0-.167-.033.461.461,0,0,1-.15-.017c-.1-.033-.2-.067-.317-.1a.442.442,0,0,1-.1-.083,1.439,1.439,0,0,1-.217-.233,6.019,6.019,0,0,0-.417-.5,2.9,2.9,0,0,0-.25-.217,1.582,1.582,0,0,0-.283-.167.592.592,0,0,0-.15-.067.94.94,0,0,1,.383-.117c-.017-.083-.117-.133-.15-.217a.865.865,0,0,1,.05-.467.255.255,0,0,1,.333-.067.986.986,0,0,0,.333.067,1.475,1.475,0,0,1,.667.05c.167.1.233.3.367.433a.293.293,0,0,0,.083.067.782.782,0,0,0-.1.15.828.828,0,0,0-.05.567.84.84,0,0,1,.05.317,2.44,2.44,0,0,1,.85-.117c.033.167-.033.217.1.383.117.133.3.217.417.35.1.117.233.733.483.617.05-.233-.017-.4.267-.5a.49.49,0,0,0,.367-.15c.033-.117-.017-.167-.133-.2a.793.793,0,0,1-.383-.533.634.634,0,0,1,.133-.717A2.9,2.9,0,0,1,9.67,14.7h.017a1.966,1.966,0,0,1,.333.067c.05.017.117.033.167.05.033.017.05.017.083.033.017.017.05.017.067.033.05.033.083.067.133.1h0a1.439,1.439,0,0,0-.017.25v.35c0,.05.017.083.017.133a1.388,1.388,0,0,0,.067.25l.05.1.05.1c.05.133.1.283.15.417a7.014,7.014,0,0,1,.2.8c-.033.117-.067.217-.1.35-.017.033-.017.083-.033.117,0,.033-.017.083-.017.117,0,.083-.017.167-.017.25a2.685,2.685,0,0,0,.1.733V19a.705.705,0,0,1-.083-.117A.929.929,0,0,0,10.719,18.615Zm8.416,2.716h0c.067.167.167.317.217.467a.061.061,0,0,1-.017.05l-.05.15-.033.083-.017.017v.017c0,.017-.017.017-.017.033a.506.506,0,0,1-.083.117.835.835,0,0,1-.117.133l-.1.15a.706.706,0,0,1-.083.117.016.016,0,0,1-.017.017l-.033.033-.067.067-.183.183a.058.058,0,0,0-.033.017.847.847,0,0,0-.217.15,2.41,2.41,0,0,0-.35.367c-.017.017-.033.033-.033.05-.067.05-.117.083-.183.133-.183.133-.383.25-.567.4-.1.067-.183.133-.283.2s-.183.15-.267.217c-.067.05-.15.117-.217.167a.592.592,0,0,0-.15.067,3.157,3.157,0,0,1-.3.1c-.1.033-.217.05-.333.083-.05.017-.117.033-.183.05s-.117.05-.183.067a1.963,1.963,0,0,0-.317.183c-.2.133-.383.283-.55.4-.05.033-.083.05-.133.083l-.067.033-.083.05a1.437,1.437,0,0,0-.3.233c-.05.05-.1.083-.15.133-.017,0-.017.017-.033.017a1.078,1.078,0,0,0-.15.133c-.05.033-.083.067-.133.1-.033.017-.05.05-.067.067h0v-.017l.15-.7.083-.4.05-.2a1.261,1.261,0,0,0,.017-.25v-.017a.282.282,0,0,0,.083-.033c.017-.017.017-.017.033-.017l.017-.017.033-.033a.442.442,0,0,0,.083-.1q.025-.05.05-.05h.017c.017-.017.033-.033.05-.033l.1-.1c.067-.067.1-.15.133-.183a1.175,1.175,0,0,0,.117-.15,1.771,1.771,0,0,0,.15-.183,1.679,1.679,0,0,0,.2-.383,2.994,2.994,0,0,0,.317-.333c.1-.117.167-.217.267-.317.083-.1.167-.217.25-.333a4.448,4.448,0,0,0,.417-.717,4.242,4.242,0,0,0,.367-1.633v-.433a5.425,5.425,0,0,0,.25-.733.061.061,0,0,1,.017-.05c.167.133.35.483.467.517s.217-.033.35.05c.283.15.267.55.35.833.1.35.317.333.583.183a.016.016,0,0,0,.017-.017,1.323,1.323,0,0,0,.367.317c.067.05.133.083.2.133a1.771,1.771,0,0,1,.183.15A.752.752,0,0,0,19.135,21.331Zm-2.65-2.4a2.039,2.039,0,0,0,.05-.283.811.811,0,0,0,.017-.2,1.157,1.157,0,0,0,.083-.217l.033-.067A.99.99,0,0,1,16.486,18.931ZM10.8,14.882v.033h-.017A.052.052,0,0,0,10.8,14.882Zm.25-1.633a.237.237,0,0,1-.033.1c0,.017-.017.05-.017.067a.1.1,0,0,1-.017.067.211.211,0,0,1-.017.1c0,.017,0,.033-.017.033,0,.017-.017.05-.017.067a.487.487,0,0,0-.033.15c-.017.05-.033.117-.05.183a3.079,3.079,0,0,1-.217.483.725.725,0,0,0-.367.05c-.067,0-.117.017-.183.017a1.262,1.262,0,0,0,.5,0c-.017.033-.033.083-.05.117a.058.058,0,0,1-.033-.017.86.86,0,0,0-.183-.033c-.033,0-.05-.017-.067-.017-.033,0-.05-.017-.083-.017s-.067-.017-.1-.017H10.1a.309.309,0,0,1-.117-.033c-.033-.1.183-.383.217-.467a.656.656,0,0,0-.533-.25c0-.267.783-.05.917-.283A1.656,1.656,0,0,1,9.97,12.3a1.031,1.031,0,0,1,.083-.45,3.491,3.491,0,0,0,.283.233c.05.05.117.1.167.15.017.017.067.05.083.083.033.033.067.05.083.067a.605.605,0,0,1,.15.133c.017.017.033.05.05.067a.127.127,0,0,1,.033.083l.033.1c0,.017.017.033.017.05a.052.052,0,0,1,.017.033v.1c0,.033.017.05.017.067s.017.05.017.067a.1.1,0,0,1,.017.067C11.069,13.2,11.069,13.215,11.053,13.249Zm-.233,2.25a.514.514,0,0,1,.017.167c0,.05.017.117.017.183v-.017a.812.812,0,0,1-.067-.183c0-.033-.017-.067-.017-.1v-.2A.775.775,0,0,1,10.819,15.5Zm-.05-3.45c.033.017.05.033.083.05.017.017.033.017.033.033h0a1.439,1.439,0,0,1,.233.217,1.818,1.818,0,0,1,.1.183l.05.117.033.05v.15a.392.392,0,0,1-.033.133c-.017-.017-.017-.033-.017-.067v-.05a.181.181,0,0,0-.017-.083c0-.033-.017-.067-.033-.067,0-.017-.017-.033-.017-.05l-.05-.1a.813.813,0,0,1-.05-.117A.506.506,0,0,0,11,12.332c-.067-.067-.133-.117-.183-.167a.364.364,0,0,1-.083-.067.293.293,0,0,1-.083-.067c-.067-.05-.117-.1-.183-.15-.05-.033-.083-.067-.133-.1.05.033.1.05.15.083l.1.05C10.653,11.965,10.719,12.015,10.769,12.049Zm-5.2,3.733c-.117-.15-.483-.233-.533-.433C5,15.232,5.12,15.065,5.2,15l.017-.017c.05.033.117.05.167.083a1.51,1.51,0,0,1,.267.183,1.439,1.439,0,0,1,.233.217,4.242,4.242,0,0,1,.4.517c.05.067.1.117.15.183H6.42c-.283-.083-.55-.2-.833-.3C5.587,15.815,5.587,15.8,5.57,15.782Zm13.4,7.233.067-.067.033-.033c.017-.017.017-.033.033-.033a.585.585,0,0,0,.083-.133l.033-.033h0a1.683,1.683,0,0,1-.217.267l-.05.05-.033.033C18.919,23.048,18.952,23.031,18.969,23.014Zm-.1-2.05a2.466,2.466,0,0,0-.217-.133,1.188,1.188,0,0,1-.35-.283,1.245,1.245,0,0,0,.433-.3,1.388,1.388,0,0,0,.067.25c.017.017.017.05.033.067l.033.067c.017.05.033.083.05.133l.05.15a.592.592,0,0,0,.067.15v.017C18.969,21.031,18.919,21,18.869,20.965Zm-.083-1.1a.237.237,0,0,0-.033.1c0-.017-.017-.017-.017-.033-.117-.217-.45-.283-.267-.567.083-.133.267-.183.267-.383,0-.1-.067-.15-.083-.233a2.462,2.462,0,0,1-.017-.35c0-.117-.05-.1.05-.133.117-.05.283.067.383.117a3.709,3.709,0,0,0,.667.267l-.017.033c-.1.167-.2.333-.317.5a1.235,1.235,0,0,1-.2.217c-.067.067-.15.133-.217.2A.542.542,0,0,0,18.785,19.865Zm-6.616,1.567-.033-.083a.237.237,0,0,1-.033-.1c-.05-.2-.1-.383-.15-.567l-.117-.383a.016.016,0,0,0,.017.017,1.542,1.542,0,0,1,.083.167V20.5l.017.033c.017.017.017.05.033.067l.05.1a.058.058,0,0,0,.017.033c0,.017,0,.017.017.033a.589.589,0,0,1,.017.1c0,.033.017.083.017.133,0,.017,0,.017.017.033l.017.033.017.05a.879.879,0,0,1,.05.2.18.18,0,0,0-.033.117ZM11.2,14.082a.237.237,0,0,0-.033.1V14.1a.269.269,0,0,1,.05-.15l.1-.15A1.442,1.442,0,0,0,11.2,14.082ZM8.336,16.865c.017,0,.017.017.033.017L8.4,16.9l.05.05.117.117c.15.15.267.317.417.483H9c-.083,0-.167-.083-.25-.15l-.1-.1a.506.506,0,0,1-.083-.117,3.391,3.391,0,0,0-.417-.433.016.016,0,0,1-.017-.017A2.042,2.042,0,0,0,8.336,16.865Zm11.032,3.216v.667c-.017-.05-.033-.083-.05-.133,0-.033-.017-.05-.017-.083l-.017-.083a.487.487,0,0,1-.033-.15v-.067a.061.061,0,0,1,.017-.05.442.442,0,0,1,.083-.1c.017-.017.033-.017.033-.033A.052.052,0,0,0,19.369,20.081Zm.683-.733-.083.033c-.033.017-.05.017-.083.033a1.169,1.169,0,0,0-.15.1c-.05.033-.083.067-.133.1a.363.363,0,0,1-.133.083,1.691,1.691,0,0,0-.3.217.652.652,0,0,0-.133.167A.241.241,0,0,0,19,20.2v.117a.6.6,0,0,0,.033.183l.017.083c0,.033.017.05.017.083a.812.812,0,0,0,.067.183.364.364,0,0,0,.05.083c.017.033.033.05.05.083.033.067.083.117.117.183v.133c-.017-.017-.017-.05-.033-.067l-.033-.067-.033-.067L19.185,21c-.017-.05-.05-.083-.05-.133-.017-.05-.033-.083-.05-.133l-.05-.15L19,20.515l-.033-.067a1.638,1.638,0,0,1-.083-.267.437.437,0,0,1,.033-.25.634.634,0,0,1,.15-.217,2.563,2.563,0,0,1,.217-.2,2.9,2.9,0,0,0,.2-.233,5.344,5.344,0,0,0,.317-.517l.033-.05a.722.722,0,0,0,.083.017,3.236,3.236,0,0,1,.033.4.236.236,0,0,0,.233.15c.017.017.033.017.05.033a.016.016,0,0,0-.017.017A.274.274,0,0,0,20.052,19.348Zm-7.366-8.233c.6.183,0,.667-.1,1a.474.474,0,0,1,0,.217c-.033.067-.067.15-.1.217a.761.761,0,0,0-.1.567c.05.233.117.267.317.333.167.067.2.067.117.25-.05.1-.15.183-.2.283a1.841,1.841,0,0,0-.233.883,1.731,1.731,0,0,0,.117.583c.267.55-.35,1.033-.533,1.517.167.217.667,0,.883.15.017.167-.3.133-.25.4.067.317.567.65.767.867.15.167.167.267.333.217.133-.033.1-.1.15-.183a.13.13,0,0,1,.033-.133c.067-.067.133-.15.2-.217.2-.25.383-.483.6-.717.15-.183.167-.167.367-.117.2.067.4.117.6.167l-.017.033c-.017.033-.033.083-.05.117,0,.017-.017.05-.017.067l-.017.033v.033l-.05.217-.1.45c-.017.083-.017.167-.033.233v.433a1.743,1.743,0,0,0-.217.383,4.633,4.633,0,0,0-.283.933l-.1.45c-.017.067-.033.15-.05.217l-.067.233a.706.706,0,0,1-.067.2l-.017.05c-.017.033-.017.05-.033.083-.017.05-.017.1-.033.133,0,.033-.017.05-.017.083l-.05.067a1.746,1.746,0,0,1-.133.183c-.083.133-.167.25-.25.383l-.15.25a.442.442,0,0,1-.1.083c-.1.1-.217.2-.317.317a3.254,3.254,0,0,0-.283.383c-.017.017-.017.033-.033.05l-.033.05-.05.1c0,.017-.017.017-.017.033,0-.017-.017-.033-.017-.05s-.017-.05-.017-.067c-.017-.05-.017-.083-.033-.133v-.017c-.017-.05-.033-.083-.05-.133-.05-.133-.083-.267-.133-.4-.033-.1-.083-.217-.117-.317v-.033l-.017-.05-.017-.117c-.017-.067-.017-.15-.033-.217,0-.067-.017-.133-.017-.217a1.16,1.16,0,0,0-.033-.267,1.088,1.088,0,0,1-.033-.183v-.133c0-.05-.017-.1-.017-.133-.017-.083-.05-.167-.067-.233l-.017-.05V20.9c0-.033-.017-.067-.017-.1s-.017-.083-.017-.133a.722.722,0,0,1-.017-.083c-.017-.017-.017-.05-.033-.067l-.05-.1a.058.058,0,0,0-.017-.033v-.017l-.017-.033a.779.779,0,0,0-.133-.233,1.465,1.465,0,0,0-.1-.167,1.389,1.389,0,0,1-.067-.2,1.564,1.564,0,0,0-.1-.25.126.126,0,0,1-.033-.067l-.033-.05-.05-.1a1.818,1.818,0,0,0-.1-.183c-.033-.05-.05-.117-.083-.167a.461.461,0,0,0-.017-.15.6.6,0,0,0-.033-.183c0-.033-.017-.067-.017-.1a.1.1,0,0,1,.017-.067l.017-.117.017-.067.017-.067c.017-.083.033-.15.05-.233a4.467,4.467,0,0,0,.083-.5,1.836,1.836,0,0,0-.117-1.067c-.017-.017-.083-.033-.083-.05-.033-.1,0-.2-.15-.3h0l.067-.05c0-.017.033-.05.033-.067v-.117c-.017-.083-.017-.15-.033-.217a.811.811,0,0,1-.017-.2v-.117a.284.284,0,0,0-.017-.117c-.017-.083-.033-.15-.05-.233-.017-.033-.017-.083-.033-.117l-.017-.05c0-.017,0-.017-.017-.033a.722.722,0,0,1,.017-.083c.017-.033.017-.067.033-.1l.05-.117a1.306,1.306,0,0,0,.083-.233c.05-.15.1-.317.167-.467a1.878,1.878,0,0,0,.083-.533v-.133c0-.033-.017-.067-.017-.1v-.05a.7.7,0,0,0-.067-.267c-.033-.067-.083-.117-.117-.183V12.4a.837.837,0,0,0-.083-.217c-.033-.067-.083-.133-.117-.2a.706.706,0,0,1-.083-.117,3.648,3.648,0,0,1,.717-.717A1,1,0,0,1,12.686,11.116Zm-2.1.533a.166.166,0,0,1-.083-.067c-.033-.017-.067-.05-.1-.067C10.486,11.516,10.536,11.566,10.586,11.649Zm-3.25,5.466a.415.415,0,0,1-.283-.05c-.067-.05-.067-.15-.133-.217-.2-.167-.55.283-.8.25a2.989,2.989,0,0,0,.383-.417.5.5,0,0,1,.233-.183.487.487,0,0,1,.15-.033l.15.05a2.748,2.748,0,0,1,.617.333c.017.017.05.033.067.05C7.6,17,7.553,17.115,7.336,17.115Zm1.467.55a1.511,1.511,0,0,1-.267-.183L8.4,17.365,8.336,17.3,8.3,17.265l-.033-.033c-.017-.017-.017-.033-.033-.05h.217c-.233-.183-.25-.2-.25-.217-.133-.017-.183-.1-.267-.133-.067-.05-.117-.1-.183-.15l-.25-.15h.1a.487.487,0,0,1,.15.033.087.087,0,0,1,.067.033.058.058,0,0,1,.033.017,1.258,1.258,0,0,1,.233.183,2.47,2.47,0,0,1,.4.433c.033.033.05.083.083.117a.725.725,0,0,0,.1.117,2.171,2.171,0,0,0,.25.167l.133.067.033.017a.016.016,0,0,1,.017.017l.05.05a.3.3,0,0,0,.15.067c.017.017.033.017.05.033C9.2,17.832,8.986,17.748,8.8,17.665Zm13.515-2.8v0Z" transform="translate(696.841 3984.86)"/></g></svg>