<svg id="Layer_1" data-name="Layer 1" xmlns="http://www.w3.org/2000/svg" viewBox="0 0 123.57 47.53"><defs><style>.cls-1{fill:#fff;}</style></defs><title>logo-white</title><path class="cls-1" d="M35.45,20.56a15.4,15.4,0,0,1-2.7,6.18A27.49,27.49,0,0,0,28,25a24.55,24.55,0,0,0,0-14.49,28.14,28.14,0,0,0,4.83-1.84,14.85,14.85,0,0,1,2.77,7,12.92,12.92,0,0,1,2.53,2A17.52,17.52,0,0,0,20.37,0,17.78,17.78,0,0,0,2.61,17.78s0,0.07,0,.11A11.85,11.85,0,0,1,5.21,15.8,14.8,14.8,0,0,1,8,8.78a27.36,27.36,0,0,0,4.76,1.82,24.49,24.49,0,0,0-1.07,7.19A25.28,25.28,0,0,0,12.8,25,28.05,28.05,0,0,0,8,26.89a15,15,0,0,1-2.63-6.21A8.54,8.54,0,0,0,3.6,23.61a17.76,17.76,0,0,0,33.57-.05,7.59,7.59,0,0,0-1.72-3M31.21,6.8a25.63,25.63,0,0,1-4,1.46A25.06,25.06,0,0,0,24.1,2.8a15.4,15.4,0,0,1,7.1,4m-4.57,11a22.66,22.66,0,0,1-1,6.65A28.5,28.5,0,0,0,20.37,24a28.06,28.06,0,0,0-5.24.55,23.08,23.08,0,0,1-1-6.71,22.15,22.15,0,0,1,1-6.66,28.4,28.4,0,0,0,5.24.49,28.51,28.51,0,0,0,5.24-.57,22.66,22.66,0,0,1,1,6.73m-1.86-9a26,26,0,0,1-4.4.37A26,26,0,0,1,16,8.79a22.25,22.25,0,0,1,4.4-6.54,22.25,22.25,0,0,1,4.4,6.54M9.6,6.86a15.4,15.4,0,0,1,7.1-4,25,25,0,0,0-3.09,5.45,25.74,25.74,0,0,1-4-1.46m0,21.93a25.79,25.79,0,0,1,4-1.47,23.91,23.91,0,0,0,3,5.34,15,15,0,0,1-7-3.87m6.41-2a24.28,24.28,0,0,1,8.66,0,21.48,21.48,0,0,1-4.32,6.53A21.42,21.42,0,0,1,16,26.8m8.09,5.83a24.11,24.11,0,0,0,3-5.37,25.22,25.22,0,0,1,4,1.39,15.06,15.06,0,0,1-7,4"/><path class="cls-1" d="M15.88,17.53a12.29,12.29,0,0,1,5.48,4,13,13,0,0,1,5.53-4A11.53,11.53,0,0,0,26.72,15,11.77,11.77,0,0,0,21.36,18a11.91,11.91,0,0,0-5.27-2.94,16.53,16.53,0,0,0-.2,2.45"/><path class="cls-1" d="M29.61,14.64a15.82,15.82,0,0,1,.14,2.45c5.32,0.54,8.57,4.17,8.57,9.13,0,6.22-8.11,11.62-18,18.31C10.52,37.73,2.43,33,2.43,26.45c0-5.38,3.79-8.74,8.55-9.25,0-.71.1-1.88,0.16-2.47A11.56,11.56,0,0,0,0,26.52c0,8,9.36,13.37,20.35,21,11-7.72,20.35-13.4,20.35-21.43A11.32,11.32,0,0,0,29.61,14.64"/><path class="cls-1" d="M48.34,15.84a3.25,3.25,0,0,0,1,.81,4.24,4.24,0,0,0,2,.5c1,0,1.9-.48,1.9-1.2s-1-1-1.8-1.05c-0.57-.07-1.14-0.15-1.69-0.27s-2.78-.58-2.78-2.81c0-2.66,2.37-3.44,4.15-3.44a6.28,6.28,0,0,1,4.55,2l-1.9,1.36a4.68,4.68,0,0,0-1-.83,3.69,3.69,0,0,0-1.68-.45,1.32,1.32,0,0,0-1.53,1.08c0,0.79.88,0.91,1.31,1a20,20,0,0,1,3.15.61,2.56,2.56,0,0,1,1.78,2.53A3.42,3.42,0,0,1,55,17.78a5,5,0,0,1-3.87,1.38,5.5,5.5,0,0,1-4.7-2.08Z"/><path class="cls-1" d="M57.32,9.11h2.23v2.38H61v1.37H59.54v3.43c0,0.47,0,.86.58,0.86l0.8,0v1.75a7.19,7.19,0,0,1-1.18.12,2.33,2.33,0,0,1-2.1-.74,3,3,0,0,1-.32-1.72V12.84H56.21V11.48h1.11V9.11Z"/><path class="cls-1" d="M64.12,12.11a3.53,3.53,0,0,1,2.2-.87v2l-0.74.12c-1.08.19-1.4,0.35-1.4,1.31v4.28H61.94V11.31h2.18v0.79Z"/><path class="cls-1" d="M69,16.08a3.53,3.53,0,0,1-.13-1c0-1.93,1.18-2.29,1.87-2.29a1.75,1.75,0,0,1,1.3.52Zm4.46-4a4.22,4.22,0,0,0-2.79-.95,3.75,3.75,0,0,0-4,4,3.83,3.83,0,0,0,.77,2.42l-1.1,1,0.58,0.67,1.11-1a3.74,3.74,0,0,0,2.7,1,3.84,3.84,0,0,0,4.09-3.94A4.22,4.22,0,0,0,74,12.7l1.08-1L74.53,11Zm-0.95,2.06a3.54,3.54,0,0,1,.13.94c0,1.26-.53,2.35-1.86,2.35a1.58,1.58,0,0,1-1.3-.54Z"/><path class="cls-1" d="M78.26,12.13a2.61,2.61,0,0,1,2.17-1,2.49,2.49,0,0,1,2.12.89,3.19,3.19,0,0,1,2.27-.89,2.24,2.24,0,0,1,2.13,1.1,4.31,4.31,0,0,1,.2,1.75v5H84.92v-4a5.8,5.8,0,0,0-.09-1.3,1,1,0,0,0-1-.68,1.21,1.21,0,0,0-.73.23,1.76,1.76,0,0,0-.42,1.6v4.14H80.48v-4.5a2,2,0,0,0-.22-1.08A1.11,1.11,0,0,0,79.38,13a1.16,1.16,0,0,0-.61.18,1.61,1.61,0,0,0-.51,1.46v4.33H76v-7.6h2.22v0.79Z"/><path class="cls-1" d="M91.09,12.13a2.61,2.61,0,0,1,2.16-1,2.49,2.49,0,0,1,2.12.89,3.19,3.19,0,0,1,2.27-.89,2.25,2.25,0,0,1,2.13,1.1A4.31,4.31,0,0,1,100,14v5H97.75v-4a5.87,5.87,0,0,0-.09-1.3,1,1,0,0,0-1-.68,1.21,1.21,0,0,0-.73.23,1.76,1.76,0,0,0-.42,1.6v4.14H93.31v-4.5a2,2,0,0,0-.22-1.08A1.12,1.12,0,0,0,92.21,13a1.17,1.17,0,0,0-.61.18,1.61,1.61,0,0,0-.51,1.46v4.33H88.87v-7.6h2.22v0.79Z"/><path class="cls-1" d="M103.5,14.17a2,2,0,0,1,.45-1,1.56,1.56,0,0,1,1.14-.49,1.6,1.6,0,0,1,1.1.42,1.78,1.78,0,0,1,.42,1.07H103.5Zm3.66,2a2,2,0,0,1-1.93,1.34,1.71,1.71,0,0,1-1.74-1.89h5.46a5.06,5.06,0,0,0-1.08-3.4,3.71,3.71,0,0,0-2.75-1.1c-3,0-3.92,2.36-3.92,4.19A3.65,3.65,0,0,0,105,19.2a4.19,4.19,0,0,0,2.88-1.08,6.05,6.05,0,0,0,.92-1.14Z"/><polygon class="cls-1" points="55.14 22.73 55.14 24.72 49.8 24.72 49.8 26.88 54.72 26.88 54.72 28.88 49.8 28.88 49.8 33.05 47.23 33.05 47.23 22.73 55.14 22.73"/><path class="cls-1" d="M59.57,27a1.64,1.64,0,0,1,1.32.42,2.56,2.56,0,0,1,.63,1.9,1.88,1.88,0,0,1-1.81,2.16c-1.26,0-1.84-1.06-1.84-2.26a2.75,2.75,0,0,1,.38-1.48A1.52,1.52,0,0,1,59.57,27M60,25.22a3.81,3.81,0,0,0-4.39,4,3.79,3.79,0,0,0,4.1,4,3.81,3.81,0,0,0,4.09-4,3.81,3.81,0,0,0-3.8-4"/><path class="cls-1" d="M69.55,25.45H71.8V33H69.55V32.32a2.08,2.08,0,0,1-.76.6,3.18,3.18,0,0,1-1.45.35,2.32,2.32,0,0,1-1.94-.8,3.32,3.32,0,0,1-.47-2.24V25.45h2.26v4.71a1.49,1.49,0,0,0,.18.9,1.12,1.12,0,0,0,.89.38A1.53,1.53,0,0,0,69,31.25a1.08,1.08,0,0,0,.51-1.08V25.45Z"/><path class="cls-1" d="M75.86,26.12a2.1,2.1,0,0,1,.75-0.59A3.69,3.69,0,0,1,78,25.25a2.91,2.91,0,0,1,1.36.31c0.81,0.42,1,1.11,1,2.28V33H78.12V28.76a3,3,0,0,0-.1-1.14A1,1,0,0,0,77,27c-1.18,0-1.18.95-1.18,1.9V33H73.6v-7.6h2.26v0.67Z"/><path class="cls-1" d="M86,31.37a1.38,1.38,0,0,1-.73.23c-1.14,0-1.44-1.3-1.44-2.36,0-.33,0-2.33,1.6-2.33a1.19,1.19,0,0,1,.88.45,3.07,3.07,0,0,1,.48,1.88A2.54,2.54,0,0,1,86,31.37m0.75-8.63V26a3.14,3.14,0,0,0-2-.78c-1.54,0-3.17,1.19-3.17,4.06a4.19,4.19,0,0,0,1.11,3.08,3.09,3.09,0,0,0,2.15.87,2.73,2.73,0,0,0,2.07-.92V33h2V22.73H86.79Z"/><path class="cls-1" d="M95,29.4a2,2,0,0,1-.79,2,1.49,1.49,0,0,1-.78.25,0.82,0.82,0,0,1-.85-0.77,1.16,1.16,0,0,1,1-.95Zm-2.05-1.81a1,1,0,0,1,1.19-.89,0.81,0.81,0,0,1,.86.93V28a19.69,19.69,0,0,0-3,.7,2.46,2.46,0,0,0-1.6,2.19,2.31,2.31,0,0,0,2.49,2.31,3.61,3.61,0,0,0,2.34-.9V33h2.2a1.7,1.7,0,0,1-.22-1.2V27.42c0-2-2.26-2.18-3.2-2.18a3.93,3.93,0,0,0-2.5.67,2.11,2.11,0,0,0-.8,1.69h2.25Z"/><path class="cls-1" d="M99.24,23.23h2.23v2.38h1.47V27h-1.49V30.4c0,0.47,0,.86.58,0.86l0.8,0V33a7.08,7.08,0,0,1-1.18.12,2.32,2.32,0,0,1-2.1-.74,2.94,2.94,0,0,1-.32-1.72V27H98.13V25.6h1.11V23.23Z"/><path class="cls-1" d="M103.9,22.74h2.22v1.74H103.9V22.74Zm0,2.7h2.22V33H103.9V25.43Z"/><path class="cls-1" d="M111.34,27a1.64,1.64,0,0,1,1.31.42,2.55,2.55,0,0,1,.63,1.9,1.88,1.88,0,0,1-1.81,2.16c-1.26,0-1.84-1.06-1.84-2.26a2.75,2.75,0,0,1,.38-1.48,1.53,1.53,0,0,1,1.33-.74m0.42-1.78a3.81,3.81,0,0,0-4.39,4,4.09,4.09,0,0,0,8.19,0,3.81,3.81,0,0,0-3.8-4"/><path class="cls-1" d="M119.06,26.12a2.1,2.1,0,0,1,.75-0.59,3.68,3.68,0,0,1,1.38-.28,2.91,2.91,0,0,1,1.36.31c0.8,0.42,1,1.11,1,2.28V33h-2.24V28.76a3,3,0,0,0-.1-1.14,1,1,0,0,0-1-.58C119,27,119,28,119,28.93V33H116.8v-7.6h2.26v0.67Z"/></svg>