<?xml version="1.0" encoding="utf-8"?>
<!-- Generator: Adobe Illustrator 19.2.0, SVG Export Plug-In . SVG Version: 6.00 Build 0)  -->
<svg version="1.1" id="Layer_1" xmlns="http://www.w3.org/2000/svg" xmlns:xlink="http://www.w3.org/1999/xlink" x="0px" y="0px"
	 viewBox="0 0 932.1 730.8" style="enable-background:new 0 0 932.1 730.8;" xml:space="preserve">
<style type="text/css">
	.st0{fill:#9E9E9E;}
</style>
<title>quote-open</title>
<path class="st0" d="M369.1,11.2C152.9,74.6,70.8,272.2,70.8,361.7c0,11.2,7.5,18.6,18.6,18.6s52.2-29.8,111.9-29.8
	c93.2,0,186.4,67.1,186.4,190.2c0,104.4-74.6,190.2-186.4,190.2C78.3,730.8,0,630.1,0,507.1C0,328.1,115.6,70.8,369.1,0V11.2
	L369.1,11.2z M913.5,11.2c-216.2,63.4-298.3,261-298.3,350.5c0,11.2,7.5,18.6,18.6,18.6s52.2-29.8,111.9-29.8
	c93.2,0,186.4,67.1,186.4,190.2c0,104.4-74.6,190.2-186.4,190.2c-123,0-201.3-100.7-201.3-223.7C544.4,328.2,660,71,913.5,0.1V11.2
	L913.5,11.2z"/>
</svg>
