<?xml version="1.0" encoding="utf-8"?>
<!-- Generator: Adobe Illustrator 19.2.0, SVG Export Plug-In . SVG Version: 6.00 Build 0)  -->
<svg version="1.1" id="Layer_1" xmlns="http://www.w3.org/2000/svg" xmlns:xlink="http://www.w3.org/1999/xlink" x="0px" y="0px"
	 viewBox="0 0 932.1 730.8" style="enable-background:new 0 0 932.1 730.8;" xml:space="preserve">
<style type="text/css">
	.st0{fill:#9E9E9E;}
</style>
<title>quote-close</title>
<path class="st0" d="M563,719.6c216.2-63.4,298.3-261,298.3-350.5c0-11.2-7.5-18.6-18.6-18.6s-52.2,29.8-111.9,29.8
	c-93.2,0-186.4-67.1-186.4-190.2C544.4,85.8,618.9,0,730.8,0c123,0,201.3,100.7,201.3,223.7c0,179-115.6,436.2-369.1,507.1
	L563,719.6L563,719.6z M18.6,719.6c216.3-63.3,298.3-261,298.3-350.5c0-11.2-7.5-18.6-18.6-18.6s-52.2,29.8-111.9,29.8
	C93.2,380.3,0,313.2,0,190.2C0,85.8,74.6,0,186.4,0c123,0,201.3,100.7,201.3,223.7c0,179-115.6,436.2-369.1,507.1L18.6,719.6
	L18.6,719.6z"/>
</svg>
