<?xml version="1.0" encoding="utf-8"?>
<!-- Generator: Adobe Illustrator 19.2.0, SVG Export Plug-In . SVG Version: 6.00 Build 0)  -->
<svg version="1.1" id="Layer_1" xmlns="http://www.w3.org/2000/svg" xmlns:xlink="http://www.w3.org/1999/xlink" x="0px" y="0px"
	 viewBox="0 0 960 960" style="enable-background:new 0 0 960 960;" xml:space="preserve">
<style type="text/css">
	.st0{fill:none;stroke:#4C4C4D;stroke-width:2;stroke-miterlimit:10;}
</style>
<path class="st0" d="M760.4,420.4c-8,41.4-25.1,80.6-50.1,114.6c-28.3-13.4-57.8-24.2-88.1-32.3c27-87.5,27-181.2,0-268.7
	c30.8-8.6,60.8-20,89.6-34.1c28,38.1,45.7,82.9,51.4,129.8c17.1,10.4,32.9,22.8,46.9,37.1C811.7,187.4,667.5,40.6,488,39.1
	c-2.4,0-4.9,0-7.3,0c-182,0.2-329.4,147.8-329.4,329.8c0,0,0,1.3,0,2c14.2-15.1,30.4-28.2,48.2-38.8c5.7-47.1,23.5-92,51.7-130.2
	c28.3,14,57.9,25.3,88.3,33.8c-13.2,43.2-19.9,88.2-19.8,133.4c0.4,45.3,7.3,90.4,20.6,133.7c-30.7,8.9-60.5,20.7-89,35.1
	c-24.8-34.2-41.5-73.6-48.8-115.2c-14.5,15.7-25.7,34.2-32.8,54.3C229.4,648.8,417.1,739.7,589,680c95.5-33.2,170.5-108.4,203.4-204
	C786.1,455.3,775.2,436.3,760.4,420.4 M681.8,165.2c-23.9,11.1-48.8,20.1-74.2,27.1c-14.9-36-34.3-70.1-57.7-101.3
	c49.8,12.5,95.2,38.1,131.7,74.2 M596.8,369.2c0,41.8-6.3,83.4-18.5,123.3c-32.2-5.8-64.9-8.6-97.6-8.3
	c-32.6,0.3-65.2,3.8-97.2,10.2C371.3,454.1,365,412.1,365,370c-0.1-41.9,6.1-83.5,18.5-123.5c32,6,64.6,9.1,97.2,9.1
	c32.7-0.5,65.2-4.1,97.2-10.6c12.4,40.4,18.7,82.5,18.5,124.8 M562,202.9c-27,4.6-54.3,6.9-81.6,6.9c-27.1-0.3-54-2.8-80.7-7.6
	c19.8-45,47.4-86,81.6-121.3c34.2,35.3,61.8,76.3,81.6,121.3 M281,166.3c36.4-36.1,81.9-61.7,131.7-74.2
	c-23.3,31.2-42.5,65.1-57.3,101.1c-25.4-7-50.2-16-74.2-27.1 M281.2,572.9c23.9-11.1,48.7-20.2,74.2-27.3
	c14.2,35.3,32.9,68.5,55.6,99C362,632.9,317.2,608.1,281.2,572.9 M400.1,535.8c53.1-9.6,107.5-9.6,160.6,0
	c-19.1,44.9-46.2,86-80.1,121.1C446.4,622,419,581,399.7,536.2 M549.7,644.3c22.7-30.7,41.4-64.2,55.6-99.6
	c25.4,6.5,50.2,15.1,74.2,25.8c-35.7,36.1-80.6,61.7-129.8,74.2"/>
<path class="st0" d="M378.4,364.2c40.2,14.7,75.4,40.4,101.6,74.2c27-33.4,62.4-59,102.6-74.2c0.7-15.7-0.4-31.4-3.2-46.9
	c-37.5,9.4-71.8,28.6-99.4,55.6c-27.4-26.3-61-45-97.7-54.5c-2.4,15-3.6,30.2-3.7,45.4"/>
<path class="st0" d="M652.1,310.6c2,15.1,2.9,30.2,2.6,45.4c98.7,10,158.9,77.3,158.9,169.3c0,115.4-150.4,215.5-333.8,339.6
	C298,738.9,148,651.2,148,529.7c0-99.8,70.3-162.1,158.6-171.6c0-13.2,1.9-34.9,3-45.8c-117,4.2-209,101.6-206.6,218.7
	c0,148.4,173.6,248,377.4,389.5c204-143.2,377.4-248.5,377.4-397.5C859.1,407.7,767.3,313,652.1,310.6"/>
</svg>
