<?xml version="1.0" encoding="utf-8"?>
<!-- Generator: Adobe Illustrator 19.2.0, SVG Export Plug-In . SVG Version: 6.00 Build 0)  -->
<svg version="1.1" id="Layer_1" xmlns="http://www.w3.org/2000/svg" xmlns:xlink="http://www.w3.org/1999/xlink" x="0px" y="0px"
	 viewBox="0 0 171 200" style="enable-background:new 0 0 171 200;" xml:space="preserve">
<style type="text/css">
	.st0{fill:#B7B7B7;}
</style>
<path class="st0" d="M148,86.5c-1.8,9.3-5.6,18.1-11.2,25.7c-6.4-3-13-5.4-19.8-7.2c6.1-19.6,6.1-40.6,0-60.3
	c6.9-1.9,13.6-4.5,20.1-7.7c6.3,8.6,10.2,18.6,11.5,29.1c3.8,2.3,7.4,5.1,10.5,8.3c0.3-40.3-32-73.2-72.2-73.5c-0.5,0-1.1,0-1.6,0
	c-40.8,0-73.9,33.1-73.9,74c0,0,0,0.3,0,0.5c3.2-3.4,6.8-6.3,10.8-8.7c1.3-10.6,5.3-20.6,11.6-29.2c6.4,3.1,13,5.7,19.8,7.6
	c-3,9.7-4.5,19.8-4.5,29.9c0.1,10.2,1.6,20.3,4.6,30c-6.9,2-13.6,4.6-20,7.9c-5.6-7.7-9.3-16.5-10.9-25.8c-3.3,3.5-5.8,7.7-7.4,12.2
	c13.4,38.5,55.5,58.9,94,45.5c21.4-7.4,38.2-24.3,45.6-45.8C153.8,94.3,151.3,90,148,86.5 M130.4,29.2c-5.4,2.5-10.9,4.5-16.6,6.1
	c-3.3-8.1-7.7-15.7-12.9-22.7C112,15.4,122.2,21.1,130.4,29.2 M111.3,75c0,9.4-1.4,18.7-4.2,27.7c-7.2-1.3-14.5-1.9-21.9-1.9
	c-7.3,0.1-14.6,0.8-21.8,2.3c-2.8-9-4.2-18.5-4.2-27.9s1.4-18.7,4.2-27.7c7.2,1.4,14.5,2,21.8,2c7.3-0.1,14.6-0.9,21.8-2.4
	c2.8,9.1,4.2,18.5,4.2,28 M103.5,37.7c-6,1-12.2,1.5-18.3,1.5c-6.1-0.1-12.1-0.6-18.1-1.7c4.4-10.1,10.6-19.3,18.3-27.2
	c7.7,7.9,13.9,17.1,18.3,27.2 M40.5,29.5c8.2-8.1,18.4-13.8,29.5-16.6c-5.2,7-9.5,14.6-12.9,22.7C51.5,33.9,45.9,31.9,40.5,29.5
	 M40.5,120.6c5.4-2.5,10.9-4.5,16.6-6.1c3.2,7.9,7.4,15.4,12.5,22.2C58.7,134.1,48.6,128.5,40.5,120.6 M67.2,112.3
	c11.9-2.2,24.1-2.2,36,0c-4.3,10.1-10.4,19.3-18,27.2C77.6,131.7,71.4,122.5,67.2,112.3 M100.8,136.7c5.1-6.9,9.3-14.4,12.5-22.3
	c5.7,1.5,11.3,3.4,16.6,5.8C121.9,128.2,111.8,133.9,100.8,136.7"/>
<path class="st0" d="M66.6,73.8c9,3.3,16.9,9.1,22.8,16.6c6-7.5,14-13.2,23-16.6c0.2-3.5-0.1-7.1-0.7-10.5
	c-8.4,2.1-16.1,6.4-22.3,12.5c-6.1-5.9-13.7-10.1-21.9-12.2C67,66.9,66.7,70.3,66.6,73.8"/>
<path class="st0" d="M123.7,61.8c0.5,3.4,0.7,6.8,0.6,10.2c22.1,2.2,35.7,17.3,35.7,38c0,25.9-33.7,48.3-74.9,76.2
	c-40.8-28.3-74.4-48-74.4-75.2c0-22.4,15.8-36.4,35.6-38.5c0-3,0.4-7.8,0.7-10.3C20.6,63.1,0,85,0.6,111.2
	c0,33.3,38.9,55.6,84.7,87.4c45.8-32.1,84.7-55.7,84.7-89.1C170.2,83.6,149.6,62.3,123.7,61.8"/>
</svg>
