<?xml version="1.0" encoding="utf-8"?>
<!-- Generator: Adobe Illustrator 19.2.0, SVG Export Plug-In . SVG Version: 6.00 Build 0)  -->
<svg version="1.1" id="Capa_1" xmlns="http://www.w3.org/2000/svg" xmlns:xlink="http://www.w3.org/1999/xlink" x="0px" y="0px"
	 viewBox="0 0 112.2 112.2" style="enable-background:new 0 0 112.2 112.2;" xml:space="preserve">
<style type="text/css">
	.st0{fill:#FFFFFF;}
</style>
<title>googleplus_color</title>
<path class="st0" d="M56.1,0C25.1,0,0,25.1,0,56.1c0,31,25.1,56.1,56.1,56.1c31,0,56.1-25.1,56.1-56.1C112.2,25.1,87.1,0,56.1,0z
	 M60.1,73.8c-5.7,7.4-16.3,9.5-24.9,6.7c-9.3-3.2-15.6-12-15.6-21.9c0-0.4,0-0.7,0-1.1c0-0.7,0.1-1.5,0.2-2.2c0-0.4,0.1-0.7,0.2-1.1
	c0.1-0.5,0.2-0.9,0.3-1.4c0.4-1.7,1.1-3.3,1.9-4.8c3.7-7.1,11.2-12.4,19.4-12.5c6.1-0.4,12,1.7,16.6,5.7c0,0,0,0,0,0c0,0,0,0,0,0
	c-1.9,2.1-3.8,4.1-5.9,6.1c-4-2.5-8.9-4.3-13.7-2.7c-2.9,0.8-5.3,2.6-7.1,4.9c-3,3.8-4.1,9.1-2.3,13.8c2.3,7.8,11.8,12.1,19.3,8.8
	c2.4-0.9,4.3-2.6,5.7-4.7c0.8-1.3,1.4-2.6,1.8-4.1c-4.4-0.1-8.8,0-13.2-0.2c0-2.6,0-5.2,0-7.9c0,0,0,0,0,0c0,0,0,0,0,0
	c2.8,0,5.6,0,8.4,0c1.7,0,3.5,0,5.2,0c2.8,0,5.6,0,8.4,0c0.2,2.4,0.1,4.9-0.2,7.3C64,66.7,62.7,70.6,60.1,73.8z M92.3,61.9h-6.6
	c0,2.2,0,4.4,0,6.6c-2.2,0-4.4,0-6.6,0c0,0,0,0,0,0c0,0,0,0-0.1,0c0-2.2,0-4.4,0-6.6h-6.5v0h0v-6.6H79c0-0.8,0-1.7,0-2.5
	c0-1.4,0-2.7,0-4.1h6.6c0,2.2,0,4.4,0,6.6h6.6V61.9z"/>
</svg>
