<?xml version="1.0" encoding="utf-8"?>
<!-- Generator: Adobe Illustrator 19.2.0, SVG Export Plug-In . SVG Version: 6.00 Build 0)  -->
<svg version="1.1" id="Layer_1" xmlns="http://www.w3.org/2000/svg" xmlns:xlink="http://www.w3.org/1999/xlink" x="0px" y="0px"
	 viewBox="0 0 512 512" style="enable-background:new 0 0 512 512;" xml:space="preserve">
<style type="text/css">
	.st0{fill:#FFFFFF;}
</style>
<path class="st0" d="M256,0C114.6,0,0,114.6,0,256s114.6,256,256,256s256-114.6,256-256S397.4,0,256,0z M433.1,331.5
	c-0.2,1.2-5.2,28.6-47.5,30.7c-2,7.4-5,17.2-8.3,21.3c-2.2,2.8-6,3.8-9.3,2.7c-0.2-0.1-20.5-7.1-38.9-3.6c-0.1,0-22,4.6-35.3,17.7
	c-6.5,6.4-14.2,10.8-22.3,12.8c-5,1.2-10.2,1.9-15.6,1.9c-5.3,0-10.6-0.6-15.6-1.9c-8.1-2-15.8-6.4-22.3-12.8
	c-13.4-13.2-35.2-17.7-35.4-17.7c-18.4-3.5-38.6,3.6-38.8,3.6c-3.4,1.2-7.1,0.1-9.3-2.7c-3.2-4.1-6.3-13.9-8.3-21.3
	c-42.3-2-47.3-29.4-47.5-30.7c-0.7-4.3,2-8.4,6.3-9.5c43.9-10.5,62.1-40.4,69.1-57.3c1.8-4.5-0.1-9.6-4.4-11.7L127,241.7
	c-6-3-10.4-8.4-12.1-14.9c-1.7-6.5-0.4-13.4,3.4-18.9c5.7-8.1,15.8-11.7,25.3-8.9l16.7,4.9v-44.4c0-0.1,0-0.3,0-0.4
	c4.2-78.3,73.9-88.2,95.2-89.4c0.1,0,0.8,0,1,0c21.3,1.2,90.9,11.1,95.1,89.4c0,0.1,0,0.3,0,0.4v44.4l16.7-4.9
	c9.5-2.8,19.7,0.8,25.3,8.9c3.9,5.5,5.1,12.4,3.4,18.9c-1.7,6.5-6.1,12-12.1,14.9L362.1,253c-4.3,2.1-6.2,7.3-4.4,11.7
	c6.9,16.9,25.1,46.8,69.1,57.3C431.1,323,433.8,327.2,433.1,331.5z"/>
</svg>
