<?xml version="1.0" encoding="utf-8"?>
<!-- Generator: Adobe Illustrator 19.2.0, SVG Export Plug-In . SVG Version: 6.00 Build 0)  -->
<svg version="1.1" id="Layer_1" xmlns="http://www.w3.org/2000/svg" xmlns:xlink="http://www.w3.org/1999/xlink" x="0px" y="0px"
	 viewBox="0 0 414.8 418.1" style="enable-background:new 0 0 414.8 418.1;" xml:space="preserve">
<style type="text/css">
	.st0{fill:#FFFFFF;}
</style>
<title>whatsapp_color</title>
<path class="st0" d="M197.2,0.2C86.8,5.5-0.3,97.5,0,208c0.1,32.5,7.8,64.6,22.6,93.5l-22,106.9c-0.9,4.4,1.9,8.6,6.3,9.5
	c1.1,0.2,2.3,0.2,3.5,0L115,393.1c27.7,13.8,58.2,21.2,89.1,21.6c112.9,1.7,207-87.9,210.5-200.7C418.4,93.1,318.6-5.5,197.2,0.2z
	 M322.2,322.2c-49.3,49.3-124.7,61.6-187.1,30.6l-14.6-7.3l-64.2,15.2l13.5-65.6l-7.2-14.1C30.8,218.4,42.8,142.3,92.6,92.6
	c63.4-63.4,166.2-63.4,229.6,0S385.6,258.8,322.2,322.2L322.2,322.2z"/>
<path class="st0" d="M308,252.4l-40.2-11.5c-5.3-1.5-11,0-14.8,3.9l-9.8,10c-4.1,4.2-10.4,5.6-15.9,3.4c-19-7.7-59-43.2-69.2-61
	c-2.9-5.1-2.5-11.6,1.2-16.2l8.6-11.1c3.4-4.3,4.1-10.2,1.9-15.2l-16.9-38.2c-3.4-7.6-12.2-11-19.8-7.6c-1.3,0.6-2.5,1.4-3.6,2.3
	c-11.2,9.5-24.5,23.9-26.1,39.8c-2.8,28.1,9.2,63.6,54.9,106.2c52.7,49.2,95,55.7,122.5,49.1c15.6-3.8,28.1-18.9,35.9-31.3
	c4.4-7,2.4-16.3-4.6-20.7C310.7,253.3,309.4,252.7,308,252.4z"/>
</svg>
