<?xml version="1.0" encoding="utf-8"?>
<!-- Generator: Adobe Illustrator 19.2.0, SVG Export Plug-In . SVG Version: 6.00 Build 0)  -->
<svg version="1.1" id="Capa_1" xmlns="http://www.w3.org/2000/svg" xmlns:xlink="http://www.w3.org/1999/xlink" x="0px" y="0px"
	 viewBox="0 0 97.8 97.8" style="enable-background:new 0 0 97.8 97.8;" xml:space="preserve">
<style type="text/css">
	.st0{fill:#FFFFFF;}
</style>
<g>
	<path class="st0" d="M48.9,0C21.9,0,0,21.9,0,48.9s21.9,48.9,48.9,48.9s48.9-21.9,48.9-48.9S75.9,0,48.9,0z M77.7,37.5
		c-2.8,6.3-11.3,26.2-17,39.1c0,0-1.5,0-1.5,0l-8.9-21.1c-3.5,7-7.5,14.2-10.8,21.1c0,0-1.6,0-1.6,0c-5.1-12-10.5-23.9-15.6-35.9
		c-1.2-2.9-5.4-7.6-8.3-7.6c0-0.3,0-1.1,0-1.6l17.7,0l0,1.5c-2.1,0.1-5.7,1.4-4.7,3.7c2.5,5.4,11.3,26.2,13.7,31.5
		c1.7-3.3,6.3-11.9,8.2-15.6c-1.5-3.1-6.5-14.6-7.9-17.5c-1.1-1.9-3.9-2.1-6.1-2.2c0-0.5,0-0.9,0-1.5l15.5,0v1.4
		c-2.1,0.1-4.1,0.8-3.2,2.9c2.1,4.3,3.3,7.4,5.2,11.4c0.6-1.2,3.8-7.6,5.3-11c0.9-2.3-0.4-3.1-4.2-3.2c0-0.4,0-1.1,0-1.5l13.4,0
		l0,1.4c-2.5,0.1-5,1.4-6.4,3.5L54,49.9c0.7,1.8,6.9,15.6,7.6,17.1L75,36.2c-1-2.5-4-3.1-5.2-3.1c0-0.4,0-1,0-1.5l14,0l0,0.1l0,1.4
		C80.7,33.2,78.8,34.8,77.7,37.5z"/>
</g>
</svg>
